<mxfile host="app.diagrams.net" modified="2021-02-12T14:20:18.464Z" agent="5.0 (X11; Linux x86_64) AppleWebKit/537.36 (KHTML, like Gecko) Chrome/88.0.4324.96 Safari/537.36" etag="sUbNF4GlpxWlLbyn4jjn" version="14.2.9" type="github">
  <diagram id="DRQQe5G5D7T2zeEgH_yx" name="第 1 页">
    <mxGraphModel dx="1355" dy="774" grid="1" gridSize="10" guides="1" tooltips="1" connect="1" arrows="1" fold="1" page="1" pageScale="1" pageWidth="827" pageHeight="1169" math="0" shadow="0">
      <root>
        <mxCell id="0" />
        <mxCell id="1" parent="0" />
        <mxCell id="Bnfp3k44pGPXT0sWCSnq-1" value="" style="endArrow=none;dashed=1;html=1;strokeWidth=2;" parent="1" edge="1">
          <mxGeometry width="50" height="50" relative="1" as="geometry">
            <mxPoint x="206.52" y="254" as="sourcePoint" />
            <mxPoint x="375.35999999999996" y="254" as="targetPoint" />
          </mxGeometry>
        </mxCell>
        <mxCell id="Bnfp3k44pGPXT0sWCSnq-3" value="" style="endArrow=none;dashed=1;html=1;strokeWidth=2;" parent="1" edge="1">
          <mxGeometry width="50" height="50" relative="1" as="geometry">
            <mxPoint x="296.52" y="344" as="sourcePoint" />
            <mxPoint x="296.77" y="174" as="targetPoint" />
          </mxGeometry>
        </mxCell>
        <mxCell id="Bnfp3k44pGPXT0sWCSnq-4" value="" style="endArrow=classic;html=1;strokeWidth=2;" parent="1" edge="1">
          <mxGeometry width="50" height="50" relative="1" as="geometry">
            <mxPoint x="296.77" y="174" as="sourcePoint" />
            <mxPoint x="296.77" y="154" as="targetPoint" />
          </mxGeometry>
        </mxCell>
        <mxCell id="Bnfp3k44pGPXT0sWCSnq-5" value="" style="endArrow=classic;html=1;strokeWidth=2;" parent="1" edge="1">
          <mxGeometry width="50" height="50" relative="1" as="geometry">
            <mxPoint x="377.52" y="254" as="sourcePoint" />
            <mxPoint x="397.52" y="254" as="targetPoint" />
          </mxGeometry>
        </mxCell>
        <mxCell id="Bnfp3k44pGPXT0sWCSnq-6" value="" style="endArrow=none;html=1;strokeWidth=2;" parent="1" edge="1">
          <mxGeometry width="50" height="50" relative="1" as="geometry">
            <mxPoint x="296.68999999999994" y="253" as="sourcePoint" />
            <mxPoint x="364" y="185" as="targetPoint" />
          </mxGeometry>
        </mxCell>
        <mxCell id="Bnfp3k44pGPXT0sWCSnq-7" value="" style="endArrow=none;html=1;strokeWidth=2;" parent="1" edge="1">
          <mxGeometry width="50" height="50" relative="1" as="geometry">
            <mxPoint x="224" y="274" as="sourcePoint" />
            <mxPoint x="295.51999999999975" y="254" as="targetPoint" />
          </mxGeometry>
        </mxCell>
        <mxCell id="Bnfp3k44pGPXT0sWCSnq-9" value="" style="shape=image;verticalLabelPosition=bottom;labelBackgroundColor=#ffffff;verticalAlign=top;aspect=fixed;imageAspect=0;image=data:image/png,iVBORw0KGgoAAAANSUhEUgAAAcgAAABhCAYAAABSxTF4AAAgAElEQVR4Ae2dCdh931THV5PmWbMmKpIhQiUlUwllCplSJFJRVOYy5Y9MhQaVZFZpUMmQDJUhGTJFhBAyFok0Ph/O8qz//q219z7n7HPfe++71vPc5wz3nD1899nTGkWSEoFEIBFIBBKBRCARSAQSgUQgEUgEEoFEIBFIBBKBRCARSAQSgUQgEUgEEoFEIBFIBBKBRCARSAQSgUQgEUgEEoFEIBFIBBKBRCARSAQSgUQgEUgEEoFEIBFIBBKBRCARSAQSgUQgEUgEEoFEIBFIBBKBRCARSAQSgUTAR+CTROQCInIzEbmriPyiiJwlIrcSkW8XkS/1X8u7iUAicMQIfLyIfLaIfNk0DlxfRG4tIj8hIlcVkQuLyDmPuP67rNrnicjXT7j+uIjcR0QeKCJ3FpEbisiFROQzVhbo00Xk4tM4//Mi8ksicncRubmIXFREvmhl+kf5+pVF5M9E5D0i8n/B759E5NEi8nU7RuDTROT8IvId03HH2Wd2icCpROALReSHROT3ReRlIvLvwbjwPyLywmkxzQI7aR4Cnykil5omqr8Vkf8OcGZc/pCIvGDawJxrXjZCe/6wiDy7kgdt+VIRuaeIfP7M9I/ycVaHDxWRD1YapZww6SisOHh3S/oYEXmAiLzBlO3fROTxIvIJW2acaScCpxQB+vQ3TQvht5t+V44B0fU7ROTnRARuVERfMe2E2Hl+SfTQKbl/ORF5moj85wKs3yQid+kcC68lIn83Mw/SZ4F0aokVBauR6GNv3X/ChsgxObKjjcrwpyJyjg3zz6QTgdOGAKy9PxCRD1T6XdQfy/tPddiu7JQeKSKvm3Yw/yUiL59EOKcNaxYGvyIi7x2A9R83Fhp3EpH3LcyHHeW9TlvjUF9kBi9ZCJrtDPfbCDx2qDYf7xx2QVIikAisQ+BjReRuIvKujj6n/RBWn55HR1h1XzkV7ctF5BXBO/8rIgzip4WQI8KSjnBbcv9FInK+AkA2Gb8tIuC7JE1957S1j7CSe1YAGvfhP1974oszAbLSU7DK43+IyDcWDbP2EmUAVpllXuX17ddmlO8nAqccga8Vked19DV0E+Do/KiIXEZEzisi3zrt/pBRvj9I4/kigqyMAbzsv/aanSQcrWOnbxCRV1WweI2I/J6I3EZErisisGBR1mG3+S+V98CSMfOrDICIpyzGek5bkh5KOVcSEfRPbioi969smtiBwno/FfQwBzhkBz8tIp9aIMD1XzvPK9gcYct8YvHemks042z60TkdNSkRSASWIYDS2xsbfY2dIgM22o2R3J8d6FUqu6LXN/Kgf79FRM69rBoH8xaKhq8NsGABweKjJpNFZvvE4H0dI2G3Inq6SSDXhPVd29BgrcBiRdOzR9LeWu/kxBvzls6OkJXJDYKSoRL89AAwBY/3vzh4f8ntX23kR75va3xMS/LNdxKB04IAO4aWXOqdIvIzIh/mOPXgggyzZzeq44Y9PldEGGuOlWA1/6MzriHvxcziazorjqldxP1TPH9TRN7q5FXbyKCxyrj7Zuc9TRcW/FGbgLBd56PXCnOENfIjlcb5gs6Pnm36CMKkA1VnW0bv/DmppDMLbnBFszB/bQxmAXuAD2PX3FLEYTD/vgV1u1jHrtTrz49ZkNehvMLOG9OKst5oid5iAfeNzUyZVuv6SQ53UPFDPswCpZUG/48a5zXvvTl+TgDCvRvbZtgCPfJAeOYjCDuqHpVn2MRJfQhcXUTQ+n1K/rowQNRwrMRiuKZTwCDI7gMxx1K6TsXOLhqEjxnzBzuTDxhjerGELtKwVy8xxn4dO0uPmBfmmH+MGue9spzovZ9yGgl+dMvY9Ds7P3YEwiMIDx1lA3vXCJiT2ghcepAqudcGx3oP1XY8jBwbofQRGftrW/L/Wts3uBUtsYzmp8dvOTawp/owCZaG/3DxfnBFfZHVosyj2LWO9xAR5MQeYcLRet/+j4e1oyMMc/+hAAL7Gya/FgGuBSg657kRBJ88ykPvo3acHjvaaNMp0FZT3PLYjwVs/mOSt6CQU4pXvO8BOdQIut6M7w6HBJ87ItM9SwO3cZ5SztqxEn2P3gny7yuez2CtenJR77vQe2jUHh0hBNYK6vF3OmqJZiqaS/pO7XijjvRaj7DdLydyL09YBqxSk9oI4MvRwzDv1XF5xgLZULs1TuYJNCN72Gh/JSKfNaiImI/g9arnO0NL/hgJG8Sy/mihrh27wLbFCdB88eMa0SUW2EgeneXAV08q1AoYR1hI3xWhZu5jU+NpQ9m0OMcWEr74WsLOpseoFYFzUh8COJnGfo02L9str31MMOJmdX0sxGK41dbI/dfIHUusWOxiA9nKl/9rg3iZ7qFcX8FRhEILFE3ftcQk1YMrbYp5TkRzlX3YDR8TV+XDuNzOARNVbJwFtIjtdE9DPHPAqoiy4LG+J7+fbRV8wf/YDqFmjveJYyPqRofFVm2ffmjE6Q+DZRZtV5x+sAT5Ue7LTwbTl52M1LHV4od8FWN1figh8Lvk9GOxhb0Xq2R+RC9AwxJDbQYNFnQMVtiW4dmE3wUndtQxGaxjW1fKwLw+hrH/SDMLWKa9biyvdoIdDjvvTx6c/8dNtuElzg+v2JLOKQImOmXa3vWLRQQ2b0QoU3nvRfdwJLAr4lscaVvvljvymHMH9+mz36RwNV+oFkQmthH05M4GGynQZ0WEc2Vkn7DVkNkd0wA5ol0yjcNEgAXBP3f0KQIVjFbfJ+JPDxvwX0/InpkFE+H8UFRknLvtoMmLL+WbHRtTdo8s6EZQjxtOxufHNTJjQdgy99FxHhZ9zYlBI6vuv1kMIwdHyetPpugjm21aWFmXPhNhmZ6no7jwud/d0bmQM4xQmGFS6vG4gSEr7JsRBKsCIbZ+BHrEFVROkiMQzjROCgFiBrLg02+6dmRhOqpPaX3R0qzlqf/BzYo89Ghao49w1ZiYtQx6JJRfpO05pwyeizcW4CMwZnf6R07ZtQ72CPegRY/tSAvWao1V28qj539wh9XuTdi/0JPAkmewLbKAcd6jnENe+Dkt3/WuCdVSC23TW26cGHjpl/dYWYwgVk8134YoNm22chlRgUwjEaggwI6o7DvR9RZO/3+9M/9fq9Rhi78IBh/hwH1EEGsoWpjgwWwEwfF6ZaMO1AMHMIxxLYKVyS460v34m8nvbiudtf9jVhW1CxyOETouZysjPvNwOVRmeo2zPeVfwJf/C+fdMi2uiSo+gs7qzA9H6mvpUzpWYchV10buXlvOfD8RWIIArLAebgz9F63x0awz+k3LHZqOJddfUsGF72Du1opxyTi0hnAZV7prg81N3iMI2XqPTJmJrXfHygYHuSabJ8Z9WM6wOfHn2qOrsrZesLtR9NRvwjvWvL0tzh87RxoHR8CwEtH+7Bn02U73yA/gq+PVfy0h72QV4wFT3kNxYy3hPg9MyrTt9R+eAOtnbb3y/UQABIjAY7/l2jksttGcErTfWxMRZcIXbI+4Z1SrogxUw4L/cMO3lphoEGXhSo6QgiMW9VomfOO26sD/j9AXZh6ZEDdXjinKBOatOo3UsD5b9njKwVEuxqXsnHqIBm0VmP9ZaYyQH6BSX666vPxxUD5CNkinbLnb4kNMSgQODQH6eU9f0v61xN9qC5PeaDxoua61CWyVxf7f0spnF4Ni01piR4a3G3aNaJEiNxxBLGSIrKJtVzuy+zsUQsZYqwuiMEIg7gVhKPyXjQJrZUZ5VejtULBtRnxsqKDX+PjIOXsXE3vRaFmIRGBCoNdUij4MV2mLHdx9O8cPDOl3SWiR6tjlHdFm32eC89UT5B7FSZQsD4V+oNIu2G/v1WSPinKPs3BmdRucc01joG7tfbDlvVH+XikrTnfL9LlmcqzZDq2pZ76bCGyJACGLWoGJ7Tf/yA3Yaeyees21tlAOquEL6xCn/RYDztH0R4NyNKu5VpYl/2HDi8JKWf7yGs9EozwiLSnn3HeQlSIzLesBCx6N470ijEHLgnrXuKAbsZtDiwpNWC+P8t5og2I02vC5+YZJBorWb+4c9+pzzMLMQABHC2WfqV2vdUruFY14hT3+PVHnx1Zy18R4g4Y6HCQUlHCQsFZzdVd1wGyj1p76HxrEh0aIzn5rapNXTDacmCnuFSEP6F2BMrmMIFzh9Qj0UQjawv0Xkzysi9HeNEZgk2kkAnMQ8LTWddAsj3CAtpig8HBU5uVdM870alnOwaD3WRbC52yE+utNa1fP9bgMBOtdagaPrjsLGNxjjth8jS6b4KGmx2cnmrEo/owglAS8DlTew5FyTmIjEM80jhEBBhbP6UXZj/QarfEejfa5WPXKQB8/N+FT/nyv/JGNBJuOpA0Q8KJ+aIeyR0wgRnicoAoYCtu0o3NcwCUlAomAjwB+ZXvs47R/EQdwNDEmMDZoHrXjKPvp0XXY1/TwK1x6RfPwRZGRxVLSYAQQYPdoSNEoNx6UN4LkZ3d2KOLLJSUCiYCPgBcQ3RtAuYfXlC3kO8iRXt7Rn1ECxDg8qR+BXs9ID+lPMp+cgwDyiB7tVWIxjpIF9vp7xW8iHiqSEoFEwEfgUR0Tk06Yr9vIrqzXywuOr48ubJLfLEPu4hWtJ5A87XvNITlmImcg4Plt1Q5lj084483lN2r2LzbP5+zI5dHymuSbicDJIQD3p9c1JP0K+eMWbDgvtJ7tx3qOsfsIByMnh/huc8YVYM1uW3HtDUSx29IfQW7IDjz7IAXeHkcabaLWa9OOztHOS0oEEgEfAdyD9Qyg2r9+2U9m1d058sc7rsrp9L2Mg4Me5cl0cLLRt4EbH0KaaAeKjnhoOP+gMqDizc4wysvev9GgPE9zMrggg62VvzYGh7a7QfZXi0xj+xLno3QIbH/iu8J+rcyrvEaRaFRcRJv/MZ/ftQNXcN5lQONjxvuMuiE76FmhjPTQgPzxvR0Nz6Q8Sv64754yzmiYQTdwCfh8EXlZ/rowwAXaIX0r+Pykn5STkXdNEIIR/kbLT/OSnVq0KPGMMhEryxBdj9K4j9Lf8j7scwIHe21Z3jsUhweK18H0MUKJlGB717+hNRtw7A2oyi5zjUNj3v0eEbnP5KmBMC53EJFvGxTHcgAUmybRin/ntXPe+4j50aYNMzBxFps9JgC0K4ukUaGXbBXoUz3fDfLHLeSftiycI7dDHIRWJ6Ic3FneojNGYpnWSV7D3evxTPRGEcGL0b4Tvn/xCITZHu2C+1DaadQmaJP6U9iej/sGA3PvDaj60BV5Xr4RVZ0d8YjwWSuKuOmrrNAe3tm2Pe1/mp556YEMOHxAaKC3otNo2xGBZ3SMP7ye9Ea5JzBui/AHjU02/lGJqoNnlV5iQcwAHImMiNiBR5pRmvi95Vr6HCELte1qR+SPoxw/0J4/Nm0qaAMW2Wt3e4jU7lQJM4ilAjbxBJLYK8K5cI+CzrsHev6ng25t/0gIlZ5VNT4h+RiOlVohfmqd7jT/x/eJev0hEKtv+mdPe7FgGk3IH3u8+GB/ib/YGhGs/TVFXTBxgNXYImSxTynejTBhx3WhVoIr/4e1yw7wyiKCY3ZYoBec6WQFzldUB3t/pCKjF3Py2iuw4Pv0nJHb8us5cuy9CW1FnTHW71GWeeHks3QFTh99FVdI7+ho+PdMcdU++mLnCWxUBZwjHZPyo95OTEn7H+dMpN/dmfahPUYnZbeOjArv+PlrY8B3QmSMQyFYptgnl9+1d43B+WjCRWWPFx8m0VYYpus69ehxS0d7Pbd4Fx0HQvf9ebBYhnW5VeQeWInsVN9ZlIkdLA7SUZprEbvh3gl/VOhBXNoRwKH8dpY6ljivo2ENJs+cfmU+XDNWn6MFzq7+BxAMd72C2nsIikexZr63Iz/yhgU61/8qPG1b7udNbFRWuWgnwia2/+v5Cw4sRMzc7wPtYz7W/LUxWCPzntsuI55nsO0189hCkQPWmfaj2pGJAQfhEcHa8xxyt+I0ItMsdygoWuF+D5Yd7RmJdB4UFWbF/StUWImKD+VtsY7ZbZYTrL5vj7DXL7WivPZVYvOWCpvIrZeEz2JHT8QULSsbEcZnFknUnUVN5ABhbwLW9wqBHz1wVu+N/zjX/yq7QOsNCHkLjWQJQXa02h31kdn88jwR2BoBJh20lHUgqh2vNLgwTGpP7My7Fc8VueCrnLRQsqtR6UP6LCcaRCRqYAAfqTTEbrqX3X3rWqVE5JYOFl7bohnMwnctEeEEnY8yj/stSBjxxONMWkzi3i4Xn8BlflwTnGIvzK1QuSY6h1dIe29U9G92hLCwbNrR+bVmNAyrEWuHxYraC+hcC8eDP8ukRODQEGAgIT5r1I/sfcwxRhIL0EghxubLeSsME7uX8p03TRqpUZnZrdkgwgSB9qgW53aU2Qly0h5unNaRTUdEKNzwvz5bO6IgNUIkQEBmZLM2L3Z9S8KifX+RjjfJsriK6sgi4yTDoX20XVi1ETDYguKdjwrCycf45o78AGiOsPY2RZqRcwGiCHj14959P4pKniQCh4UA2qHRd23vX3RwtXo14OnPF2nk7UX2gS0bEQqGVnv2LYEiIfKsWpSRUY4LMCOxWLfOn1QxYbtAseCvpcXYPEJmh4elMh82M3MJURyiLU2LzYon62UREOm/oDcyauEyt/xne/5cjtaYVsweH+OwLc6WUOcF2lA23egc+WNvoyNnQC1f03pyxcbRYyHoe6iHJyUCh4gArFP9jmvHKw6sHLoE7+/MF5kbY01EiD5gq5Vlv2H0whSRxGqq4wvWI+RddnyweSBumbMQ99LXe4w7Nu3WOZN/ZD7RaydOHnfXAqw4snjBl6stM9jCcZtLZYzfqA3RC4lkrCx2WjLaueVa9DyF7BHw/25ltdObMR48erXt5gjPb2oalg8ez0AeAXiNBULMtaRE4BARYLVdDnB2sNNzWF8jCBOJaNLRvOyRIAc1Uw2Uh0rdALRMIzYb7Dkr46JfR4oktSgjmJTMVQT08GPX1MtqVlwwRfOItDxlJX2vPEbcMi9t7x5zgKctiw7HXMJMxzrOxz4zavfaZonFUrR4mFumVc/zoT3NTDAl+HpNIM6aBlqrEDRCqWmmaXvHq7cSnP7nY7Lq3ew8Iy3EmtHtqyvvdRYlH0sETgyBXmfh9xxQQrQrrbzf67/lvVa+j3DGIJRvIkJD1e5eawGga0qBeHMZQexC3+7UocRBr2E5Ry7/kAXyvz7bOq5hEbM4wBlAmQdmeEs2DNi52rQ8xRzwRokH8x37rD3H/+zeENpUtnDeOTu/GoukVhmUCKyswEvf3ntXQzBv8+Ijg1+t79dUwmteZUYa2try5XkisCsEWABalqP2CXtcG66OianHKYDNk/NrVECAvVq6U8NnbE1meRfT59l5RpMN4pfaZA6beARh9xixC0ssuK5p6EcmKV463GspP9Xqx8LF88IUTWy1tPiPcVTLiR175NYQ3ZcIL8bzqD1b+W/yPxMfH6RWLDoSv3EuwSKZ2+Bsr9nZ9pC1wUKbDeG2R2jblRpatp7H6ijAwyLvHScCqOm3uEE4yliqqHOZhZMj/awWQcTzFoN8LnIyzq7H1hOuUWSqQb+2/dyeoyGLHfgIgr0LF8qmH52j+BLV7XqFVm6Uhr0PfnMJtieLDKsBrGkuXUQhwnqJwQAbx0iPJDK7oQxwGke5zZuLS/g86tEKUHTEWcAcX3lMVij3ROlF91v2UloJJlFrAwXPPOJ3l2rHNm8MYfdCIKwVy2MisBABRBOtxS6KanPkbixyCajueaHCW83rOvo4zsw9gp1ojcnpl3h9wh9rRJg0WG8vkXcgJqHauDYy+AJlbbnsxAAftmI0OV4i2O2W+Nixi3MWCJH81cMQT2Zw00qHAKSFLDea1Ly07D3YzNZCIdqd8+15Mk+tV40LaPPb6TmrSrbEWkjvyNaX1Uq0WtMCIxdkxcjE46XTujfH2wdCYVa2GPlHkzcNHnlsoCz31oLnMRE4AgTu1uh3sGFZhPYsCrGbRD7osW5RCoK9d6tGfvQxzCxKpYvI1i+yZbRNA4uOiDwY5pfp6nNE9EAb0htvGMt4fyRFhv3ISlm8szuM6MKBsiS7UmS+dsfs1YeNQrQ50DyZmK9TKNHYtGCdoyuyhnBYgFu62gKHjZO3c6UsLO72NrLHnQt5ngVPz+H3E7LmcpMhPp2MDx1gMczHRRD+D0uNNH2/dWSVWnq/WdNgvHtuEcFbvJc3DbW10+K15c/3E4G5CNTs/rQfsPNgccnKn4UmEw1HdmhEuUFOFgViRq6nEwyu7loarSy+0TZnp0M+DPr4TLb6A5QLpyVLDNM9fKx2u9ZZjyj2tRb6Xpq1e4yFnryTOsJWxc8sY5sqEZI/4q17BOIfxiwcnUNgUrNXZzdIHozL2ByyKWBCJA8WCkyMsE6jiQkZ8K4mJsxStB3KI7oqe+FBZ8L9jMOjKoW3laFBcHGE01kiH3A+R/PKpmXPUQseTbCHbB72HNulOeym0WXL9BKBLRBAS7DGNdE+gIIGzqEZmDDlwrE3nJ9y4tLnOT7DMeK+mojgiNs+V54zODMpUy6PbYibSOz/RhBOBGrehSKW79q80dOobQ5gYcJmfey0k3t9gBk79tIuG09DLYz5n/ZEHIYcl7YqFaDKdkHnI1KmWYtH+T7cxZo1wxqFozKvTa5ZdbBdj1YaJbg91+wKrSlG7R0ExyOJFTEfSZQnYWiSEoFjRYDVujWHiPpBz312k/g5pU95BKsVmWRPWt4zmGOMovNVZLHIONE63YqsfaZXz9Y9dtvl5KhlxQi/pmzYStv+zyIIHREmrV0RJinR4gtZtudxZ1dlm5UPK6GaUb0FOjpnNYPBK4J4tv/Rc3qfXWlk5D+r8OZhVMU9NWbyhJ2zludussrTRGAvEcDZN5we7Wdzj+zs2I30iCJQEupR2rFlYMf14MHI3bFSX1iNW8b6RHkQvGwde8/ZUbY06hlPiT7Um6b3HO+Pchoxp+lqrgkfMiehfXiWlQUrGfzq2SgZHuD2Hisg2DUaHQMZYI+XD/j3a5wReJjhX9WWzZ6PMhL28s17icA+IYAsCvYlE2VLy1X7CJE10HbEvnIOEc6IvoU9s6YVHZkQRg/U6ETAyo3ynBMEYU69y2fxD+3JJL1ysVhn8mDn20OYp+B/N2LRennAFYSThz/qHgWtnnLMeQbZdsTuZZE0enM0p2yrnoXtigoy6rfwz1GxRuMJoTG2RGhavWjSVKPR0MiydM3Kx2obkt3mSEI9vfaBoqCQlAicJgRY9KJFiHMQ5GDI4HEYjdwKF2HsfNjN4QasJ6hvDTuUf35yitiAnItx48WTz1XyhV27BXsPLUrPhIGxBtlnpO1eq8vS/1DKYUJmd4QmKzgwVqLUxC6Oe4iVvMhDPXkyxqH8Q7Ql0mYsxqkLYzMcQBQmkS+zo8ZSYY45SE/+c55BvmjHe3uOHosqL81Jcy+fZcJUzVW8YNBIke0Mz/Zo1AHWzQfXFsUB2wj2nI9zi845uAqZXCKwGQJok2IaQD9A9oOjga2IcYBdLLsIxo5ovBiRP9qxtq/b85r7uhF519JAcYi6wyUDh9F4o/3JBIjWKmYw5AHmW7KTa/W1/7VM7VCkPJWEOnePdiu+/0YE/VSQkQOwQradw55jK5aUCCQCx4UAO7aI7Qgbb4l/0eNC6GRqg3OCSIELkdxehLY6CWg8N1J2otJzZJYjqebrD+Wh84/MLNNKBBKBvUCA0Eo6ppRH2HiRBu5eFP6IC2Fdgpbtgl39Puxyz4Cf1RYGqAjh2ekxqYwk0m8ZEAMWKzsMk0cSso+yIfSaQKWwOzzCMwfq5vxUych7Lu8lAonAfiEAu7gmzsGJiUewmm8yyQnxqjVaUdDL8zTdg61cM/PDiYFHcAGRlRPIGY5fNGZ77666h/cGhLYIzVWjDVMI1LOZGEYJS2v+T3Wy4sjKDl75KGrZPuJhw6Oyg2GachLaXl7Z8l4ikAjUEajZPuKVJmLjIbN7u1lQozTDpJk0BgGCLke2j8TjjGwf2bRZ6wkWMZsTdkp4vbETVHmON421szXvs1Mr0/au8WE4ki5esX3EN2Nk+4gMFCNiLeP9RxYq00oEEoFNEfhZ03e1D+sR28fIhRmmbPocx8tvWsrTl3gtmlPN9pFQXNouTJSYD21KGKDaCUAz945rNUoxodDdqZe+3nt+JWr4UjDYBWv65bHmCLnkk19haQHyvUQgEdgpAmhvYq9d9ne9xhTCIzR4ccumz2GnF+1ovPfzXh0B7DUxO1F87RFTnMipOe9Zl3SYsIzkMp5RamySXhkU1BZaz/Hgv5RQX66FM9E8PtDhNWJuGbBxqkURuWKQIA0Cq1fLRmeDd56UCCQC+48AUUciNh6THiYPHmHfbV3xPdB7KO8tRgDXeDqmlsfapIf3J/s8sshN6XZFhjZz7xxD3qV2Oripiwx1bV44Rh9NyCGijoLhbGQoywrTlm1JcOjRdcn0EoFEoA+BWkACPNR4BMvVsv8wNVtqsO+ln/dEHlSMq3aMvX0AEDtF62gfj06bKk4RrQKPDbZwrXM84aNFNJfYieGVo5U+CkG4oBtNaORGeUdGwij14EVE30N5KZ0IjG6ZTC8R2A4BvP9o/y2PkUwRj0JW5DTaH+x2tT2MlHEOgQlH2R5cY7kQhddCPGf9Z0fax8NQQCllDnuVCkSTSatQDwsAsSAhm4xkAq30W/9jLmLzsue3CF6mAexzkZZr8HreTgQSgRNGgPHK9mE9R7nDC+WEpr7dpeDMpNcP6glX9WCyZ4OF+1BtC3vEFZ4n6+We9aP7WhFh07Up8YHgDNcWsHYOT/6yC0oEG7fFWmVlsKVbIVgkUd1QNy6J1YpV8SY01igzlzKvvE4EEoFtEMAxuNfvI9+rxIO0zxO0OGk8AtHCxXPagDu6BxTtcrPxRTozRdz89Lh70w9midNwnBtHroQ0XVr+KysAAANoSURBVI5omG5J8K8jJR2NgK75X6kI3Eq8O2xvkhKBROCwEEDZxo4zeo5Jm1XQQa8CJyIoCOozmLWlh51t2htH7YqzPT69UIJEN4RAF1Z/hFiVsGk3JxwDRGFGbKE5R7UWmeUc6o0BRyDRXRBBYst6cY2wHqNgNN6wv7HRuZnccW6elAgkAoeHABPfs5x+D8cK93N4CUM/odTFQAFkbdSSw0NrdyXGqsAT77Fhu+qkFMW4i0arHbOxItjUrMNCAF8Xe0NbAO+c0ChzlVOQJRLyyktP7/GRMiHtyjsFHnGsDY2Wg6MV/up9WKw0VlIikAgcLgIXE5F3BmOR1+8ZI7ZQFDxcBLcp+VUKUxoddzl6IjksKHYZkuzDtY6UZ/hw8JN325nY4CmHnVorKCpaYrA0dk24iEMT127ZbcPoObzwkvW667JmfolAIjAGAbhDkYhF+zyKO5iY4Ss6aTcIsEtscTHfN22kToTdjVcYVGv1I9EjGqXIBYnr2EPYo7DbYpbXNKIjYWdOkm2JnRP5o3hjZQ50EBYFN06FnJ4mz2cSgYNCgPi0KAwif7Q7FMIqETz40ruSbR0UatsXFmuKe4kI/lftnPG2KTThRXbIZXRrG9mkUFj4xBjN4lmdyNPw7Flh4YEHzVDCQ91q8pZvZXe2onr+IRHB9+HI+I5uhTpvopWK7JFYcKwwWQykl5xO8PKxROBAEYCLdJ5pQmTwxVxgrn7FgVZ9r4vNAgYbSKwKLjSZe0R+cndaEbS5WuwHJjn4+K+ensUOBRkdk55OgLXji0UEjdakRCARSAQSgUTgoBBgJwXLsTbJLfmPbTPe161K9UEBk4VNBBKBRCARSARgL54lIm8dMFGiCYbhP6YkSYlAIpAIJAKJwFEggCwOoSlOvFvanrqr/OAUaPnhIoIRKPzkpEQgEUgEEoFE4CgRYEeJyzV2goS5euoU+gm7SLRVHy8f8cqOuQYKPDkpHuVnkJVKBBKBRCARSAQSgUQgEUgEEoFEIBFIBBKBRCARSAQSgUQgEUgEEoFEIBFIBBKBRCARSAQSgUQgEUgEEoFEIBFIBBKBRCARSAQSgUQgEUgEEoFEIBFIBBKBRCARSAQSgUQgEUgEEoFEIBFIBBKBRCARSAQSgUQgEUgEEoFEIBFIBBKBk0Pg/wH2M8q2IyVA1gAAAABJRU5ErkJggg==;direction=east;" parent="1" vertex="1">
          <mxGeometry x="206.52" y="290.76" width="52.86" height="11.24" as="geometry" />
        </mxCell>
        <mxCell id="Bnfp3k44pGPXT0sWCSnq-10" value="" style="shape=image;verticalLabelPosition=bottom;labelBackgroundColor=#ffffff;verticalAlign=top;aspect=fixed;imageAspect=0;image=data:image/png,iVBORw0KGgoAAAANSUhEUgAAAWgAAABhCAYAAAD7nTupAAAZWklEQVR4Ae2dB9QFOVmGXxSkKAqCIFKktwVEpDcBpSN9AakqwrKAIHWRKkhVQWTpSO+wHKogvYmAUlQsFAFFelVWOpbzHCa7ISaZzEzu/efe//3OuWfKnUky70y+JF+VTEbACBgBI2AEjIARMAJGwAgYASNgBIyAETACRsAIGAEjYASMgBEwAkbACBgBI2AEjIARMAJGwAgYASNgBIyAETACRsAIGAEjYASMgBEwAkbACBgBI2AEjIARmIPAKSRdSNJRkh4s6U8lPVzSXSVdSdJZ5xTqe4yAEdgJBE4z9P9rSLrD0PfhAfCC35Z0cUlnXPgkPybpFyTdWtJDBh7zyIHHXF7SWRaWv7e3X1vS6yR9TdL/Fn7/Jun5ko7YMgo/IemCkq42bLdcvaszAnuLwMklXUzSH0h6h6RvFfo+POG/JX1I0rEz+uFPS7qhpD+X9I1KHZ+Q9BRJ59lbxCc+2EklPVXStyugpQz7v4YXyr2bpB+R9FhJ/xq17T8lvUjSyTZZscs2AocAAWayx0k6PupfaV8vHf/HwDdO14DTZSS9dWDwpfLS80wUHyTpRxvK39tLflbS38x4OQHMl20QmZMMM/pQV7p9rZn0BtF30fuMwE9Kur+kzyzo+6E/vkfSRStg3XJhPa+SBC84dHR6SX/b4QX98YaQY8kVPoLS9vYbqtvFGoF9ReBnJDG5KfWpOedZ4SK3Tun3RsQZrXUhVj1U9FOS3l54SZxHMXgTSVeQ9GhJ3ytcC8DflHTJzuidTRKyqLEXyAdgMgJGoA2Bn5P0zkq/+qyk10i6z6DEu7Kk2w084F8q99FPET1yfSCUjN/N3IMoFbHKnSVdT9JVJd1GEorCEk/6n+GaUPbeb5+RAe5Lku4l6ceTp+f4XZnrY+b5ckloZ3sRLy4uv7QffxC96nY5RmAfETitJMQRub7EZOhhkn6+IvM9u6SnSYJZ5srg3AckITbF4uuLmev4/zoVcBGVIKvOlc+9Z6jcuzd/3SUzI/6CJGRFOTq1pDcXQAtAcv+ZcjfPPPfkkfqo9/OSzjyzfN9mBA4TAvThEnNGfIAVRwthTfWCkb7JZO3vM9f8VaW/YmyAyd2HM/cFHsPAgBneXtOvSPpyAgImL0dXnhq7x/cm9wTQ4i1mej2Ij+B9DfXxwnvO2nu0fc1lgCt27v6NY7Dm9zinbc/O9KevS3qEJGbWUwhb6O9kyot5QbqPrusChUpOKemVjeWh2Nxbwg7x3RkgHiWpZi6H/XFs5paCH47v3gk5HGVaPgDENKY2BG4w2J++XpJ/4xgg6tsXQtaL/XLop2yxdb7nzAdE1PHBpLy47HSfCeCtCnUxwZqisHxWoZy9OH3vDKhvaPDcQTubvuD0JXD8J51QgtHnyk/PoYQwjSPwy5KYLaX4+biMCd/7Q8ehXf0VyHRR3sXvGsUdFlJziYneW5Iy4/LTfeTWpVk6jLsm007LevG+mtwx6qVaWDrt1RveEhYdKVC5414fNDKsXPnxOV4qM21THQEcfZ7UgGeMrfd/8P29v7Nepf6m+v/Lu//LzLt/ZsYQYErtp6oo8tJvBweYXy0UDqMf022l5eFhuJf0+MyLeknDk+IGitlNClTuGFOZpcRL+2hDfbicI1M1jSPwhw145t7nYT+HNQHf/64SpnLpO8QSAkuNJYSVRk4JmNbFMbLlEoa0o0V0Gpf7u0savtZ7zztYPMQPyhLumg0NPrekz2VedFwW+9hC/2JDeWOXXLpxyYPcytSGAMtLYqy0iKnS93pYj5k9L2VkbW9nM1edT9Knkn77fUk37lDduQomdLlv5Tcq9eFmXvOvSMsjvESrtUml2vX9dd/kRfHgmNzgrDJGv5O5NwWO47d1mtE+oLG+B441fMb/KCwwR9pHt1KeDYcAbFDX9MPyJ/yuNUwa0HnwIzAWP9rNMhkLpKsMzhDY2fJDvo4zFT9MsPhddvgx2F9qcKLCkeoSQzS2Xxo6OhMKZLQwiosMvwsPgcCYJe4y4d2b9tO/kIT38FICxxa5MbE6mByWCKynxP/Z5qQMMQ7WJRsnmDARqtKXBdMeI5YmzLzSe3PHMNYexEeUKz89d7kelQ1lYL9NUBZk3yxrkdnuegftCI+L2jEE8ML9eNKPYKi12eyURzwyKTvtm+EY+TcTnhLhw/CPjWWximdg2DQxWD8msnSCL5RENF3awswidbfkYVmmjBF2i19tABAtcQ+FHUzxkw31fVoSsuoehCfiP2fqxGDeTLoHwi5j2wgQtzkwybAlINo5OzUkNzsP9cRbnM3GqGXFDA8iTOmmCXNEvKnjZ2D/FZsMynZMpsIW5SBgEOcibWzu+I2D88NSAFnC5spPz6H57UEssfCATMsPx4/bU3FHD+xcxnoRyHn6tTDLlidi6Y8dfegjte1NGwoklOhzKn4PHykEYWooetIlN5eEjL70PPzfnXA+wbA7rRSnhTEi/karrWMvzSpeTWlbc8eY/S0lPrQx7yXk6oRlNBmBXUGAVV8aDAnG08tFutXygployyo94ApPep6kNw0/TAHvtiUzRwJIja3cn7CpyRp2zsR8JUoVS3lM5lqYDtpStKY5Bhmf+4okNMZLCTkPTjNx2aV9FEdLCfd1MCnVwfmNLm2WPoDvNwIFBIhpwcqQfo85HDPqXopv+l6tz4T/0OWkQdcKzf2h00yc+G2TUDaHdpe2mzBKOOEZyfF1DkmMFK0P3+qcghKxR2YTRmZkyyWAwnkCJPWQDTO6j5n44HlpMgK7hgAOKsibcU5jItKjfwYMWvkCeQx3hciNGPhLbkvYCayFVkMkjkyXSbmGcw4zvB7UGl6UeLE9UuCQpqcWOQs5d+tg1uP5XYYRWDsCrHLJJ1jiBfF5+vOuEJYbcdvT/T9a24OQP6wlWBHLKBxZehAjbgpM7rhXvA/aTECcXB0wZ7JOmIyAETgRAVbiHyv0mbgfITrcJScfdHUYTsTPwD6ye+KI9JgQnohihz3sANPG5o5f3anx2EpiCZKrIz13/Q7PFxdBwCVCm+Jyigwcpu2Zc4yQ943ADxDAZLfFQaWXVdc2cccphZAI2GUzCKF/IqPU6oj4Fvjrp4wxd3xUp9aTXj2XfSGtE4XkJkZmRkhkdVvxHOqEmYsxAttGoCVHKH0WRrerBA8ga0tPuX1XLPDQa4nZgIYYxWMPulnjgIBnkploD8RdhhGYhgDy59a4zbnksdNq89VFBHDOSGeuuWOWAGiLexAhBHN1pOdwwTYZASOwfQRwHx+zFaa/Iio86/abdzhqZJQkNU3KGHPHv9UJEixGcrFCcnVuxJun03O4GCOwzwgQ+TLXJ9NzmN06Dd2GvoQjGq03iMXcSxbcGu9jLDLWhiBxsUbACEhqjb+xJFOLgR5BoGR2lo6SLxspZ8rfRNhKy88dkyC2JTzqlLp9rREwAuMIYNXUYmWFhQdeeaYNIIA8udUI/bYd68fnPseQ03NP71inizICRqAdAbxuW5J2YJ6Gt7JpAwigBEhzFqZMkmNCi5LluwcRMpSZca6e9FyPdFo92rzLZdB5iH3t3zgGqzWzOoAP8EaNfbSXX8QBPOL6qyT7RIt5XU9RA/LnlmzTDAq1zAxT0O0VNGZKnWu4Fpf890r6kH9NGDy7Y4ChNbz/JW0gkls6Ycod339JJQdwby8rtK00/ejGl/BnHVvzm411MigsSRDLvdcdDOgRqRAbl4wyBEDBcmXfCYeiXIfyuToue5tBesIHT+RL4t+MfStM7kgvtnYi0Bp6L5JowwuOlXSXIfXZqtuOjfHYS+D/W3R8CvzcW+p86oI6yWVH6MNSPe8a8t4tqGLVt7JiyMUEL+Hh8yd+K4TqPOw2vaxc8eAd+y4Qj/bCim8Wk1oi5+GXQeKQpaZ7KDoxDc5lT+LZyI1IfPgeoZO7M4RTNCoIST3TK21OKVdi7kOYa/9MFKo03Veu/G9JIt3NvlJr4t8cNof5HPb5qwuUM/EjRe9ApiLSYCFLJknulDjNY6E4w/dBLtFa/sEpzWa1mwZre/CUApJr8bUg32hoa22LMnR1KwEeoEVZRyp6/NR7EPE3cvm/UvC+NnNQQIwRl4UJEO0nIBIxpeP/2IeR/1qPB1thGcjaWK0gyz/evyYMMCvr9a0fxCdx2iH58b8n3zox0MlaQkbzFsJ6Ku0rueNeKbWYLOYyHc2dQMHb0hX0NySxcgYHJmfp8xDGotdqoAXj0WsIFPR3mYamDW/NxjJaoaQbN9RH/QA5Nf4GIUnjtr9nEGNgvYB2/pbJ/+FaEmvyQveVsL5hCeffOAZLdB4H/f0glviHwjcevnUY95jindk3k5pwT23bK3AasZnTPKFM0pjQTSX4RsqcXyTp4pJOP+RRRQadey4GptUYFOTStOca/fwOsqAAcmv856nxN5gFx8sjXE/TDCyMjqUEkZcNDfTWCOwgAnj4frzAdNI+zaqqRohGSv0kLuubkrAC60FYgsRls08fnkNp9L1HZ6LUlUQ4zKIxA14FEZWOBqXApMeYHvUgRrbW/INHTqiQJSnxXEO7/6mQUKCWg4xElSYjsKsIvCr6/kM/KG1JilxbKbTGhWeWPTYbb8GTFF25uDxzDBNIOhLnVMX7OadofFAFr1YxUMuzLbqGUZcoVKUXGc6PjbitjWBAaMk/iFKS2X0r3SN5hpJzC1nIwzOl20e2VubrjMDKELjyYI2QftOlYyYwiP1ydOZh5lq6Nz6Pg0oPeT1y5rhc9vFOzDHWXJvDOTKkkCg3lAUfuVD4M9qiAEYqEK5Lt6vRSbWmsnlhpxCjZCpIwcgdI39ufTnkGMQsKpSDVhmFQ44w2wvXpVvswU1GYBcReGzlu06/c47RzZR0LleUBGPL3Zeee96EflrCFXl3LpLmHOUgM18UgaGdmOvlCKsTeEy4Lt2eP3fTQZxjFGU0TRuYHr90oolO7lkQ0BMNLy07d4wAv5VuF5WJ3KwkE0O7XVOIXrK1Ql9nBFaGACKLXD8qnavFdMeRo3Rfep5Id0sIkSfi07Rc+in9dSrFlifYZ5fyizKrzllx0A5W+DXxz9Q2LbqeqX5LtCo8ipipziVGSSwl0hdROr5BY0XYVL87KpdRsQTu1aPr0no/UrmvsSm+zAgcCAJ4/E3pW0xiblpoKSvqeDWa9pP0+K6FclpPH5PxV8DsdY7/A7LweOb/xEojHlLhBSSRXRXdvdLY8EKY+cJk5xDmbciqQlljW7yXkIO10CWSZJYI/ktU86pzxLwSaj6/dgSYJZL8eKxfhf9R0pcCQqEoD9e1bB+xABxWvpjRpfXMtatO245cPkeIdohNk9YbjglDsSpi1Iy1nqGh6bakeKs9DOYq8bIjLTN3TP7BVi+uWBOLy2ZOIUD7MLf7VOWlrEYpUAPT/xmBAgKtIg4CZpVkz4gGc45cuT4azr14pgz6DgVnNUQbcwIZEVcn9hiknNJzImMvZSjHgW5VjirhfT+3wrzCy8BZZYp9IMwS5WK4v3WLs0kLwcRjY3NsJksBkEo2j7Sp9tG2tMPXGIGDRqDFLI6JT8niAl1UjsljVx37FqR9mJU1MaNbiXqQW+cmhEyg5oaTQPwat/9hlQalnsbxM2HZMWeAqFTX56+LFZYbceMZdUirPuZ3j1yY4CQwvvj+1v3rTHgkYguwlLl8RUaONUg8uqbteNSE+nypEVgjAgQGy8WeIdIc9sU1WTGiy3dm+iqiRhxWiGKZ9pn4mFl0i/iTso4rlMXMvaTcb8UbSQBRKuEFpRU4AxTme3H74/1rtVZ2ENc9oDL1Dw+BggGQAfvcg6YVJQUjI8f3Hl52ixdSKDPe8qJS77+lWDAqk9cwrifsIxa58NIKfL8RWAECxJcI33W8RYFI0CyYKH0VYmJDmAfCbeZcw+m/+AxArJoxy4vLTPeJ53OzwWoCywxcpakDhniNIR5MrMCL7w8DwVDdRjc4v8V1x/uY+s2xHNlog9PCsWuMG13aZ2TmxbKsYIRmv/QCSmXkzr85bVCH41q+xZrNdIeqXYQR2BoCeNARFCvXrziH2RledThyoCgshd/k2jTML3EyxuTT8AQsQOhTWEIwYLCKLsl7qQfv3ytsCSGcWIjHUcKnZDO9pea1VYP8hTiszCxLDzL1PC82NoWr3f/7bc1svopRPA2aEtePJtlkBPYFAZJR1Bhi/O3n9hGTELciR1hMTTHBy5Ufn4OBz5U559o3dg6v6VIUTWyijxgrYE3/k3mg5tQRA13aJ5AK8ikcVFribzACL5VDpRjiWUSYxVwbiUHSW5yS1u9jI7BtBNCplL75XD8I51gBj3nvIedFGR/umbP96CAKRRSyTbpTpd0kzS55H2+zjZPqQtnHQyF/qmly05eEbSOehwjrodbMwCx3CAXYk9AYp+0Lx8/oWZHLMgIrQuBWjXHe6QvoZ5hItUZzROmO0jEnuw59K90i02bCh910q49DTzjJqvL6Ci/AqGFnCbEHmQYeOLxIjOKRXxFkidiyeOF9QBLuo5i3IK+KqTX+c28PHpQbcYS79KMpGbLHbfe+EdhVBJhgoaAjuxCOYuiKiD6HXJg+jL4HcQYWXHMIpkf5mK0hRoQnfHLwN6AOvHoxzSUIGXLmktv1nLqn3sNKujTJhIdh5LA3BMMOlhsYdcMIS4GNMHepmbjFTBPj9Z50/cqI+deRRrtnnS7LCKwRAfwDMI/FXhjrjVI4hLltp58HnoCslzoYIEp+CXPrmXsf5sExr4n3D/VK+iKN1h0I73smbeSDqTnJ9FZGzv1wfJ8RMAKbRSCNdhkzZ/avstnq1106y6sUkNwxMuuexCj+5ULdhCO8QM/KXJYRMAKrRYAwDjmewzlEPcz0V0lYMGBaQpQ3nDVgaj2J8lvMclAgXK1nxZLSwCnxC0IuVlp6XU4SKbn4BSVn56a5OCNgBLaEACvpWmB+UmOVCEUroVcRj2C9sjWisvsNCoMQ3BqznE8MjAnb4R5Ui38RM0yUF2Pu41PaM2b7XNLYwrRRdIa2YRq4es+iKcD4WiNwyBBg0vnFqE+Hvs22ZvuMB2ScaYpYJ1uJ0UGc5ZplAw3HgLw0w2x9v9gUvrYATAwS+7ib9iQM6kt2oNg+lzS2yMBjTyxeiskIGIHdRQDekvKbcIw9d8n2mVyI4Tq2WKJtnK6XMKC4Aen+UosKBO+5iFVpPcRlnRIhrwWkWtZwYkKXKM0qfNXShT5vBIzA6hHAUqUUnwQ+dFThCViBYxceeNUXKpO6QhHTTzPVb0ltFRr1nOlVnHDHmFF4qIMlRu84zGhsa1H0SkwXsyBELaFtOOeEwDInPJh3jIAR2BkE0KvlIvzRxwk/UXKY4T4COAVesBUzvPtEFYaKa1sCnsBo5xAy3pZ4AARm6k0keyzVjTNNKYj3ryf44OpuMgJGYHcRuH3Sp2N+V+I9ROGLV+DHbyPaJT7vU/3n8TxCAzqVmInmMvTG4LCPQnITgVJqeQdLiQBY0rwlepmrNr2Z+kJ8vRE4pAgQnS7lO+H4RgVM4Elx1L4lkoRCFf//NEqxKeINHoKIdnMol6E3gBK2yKaZsW6CMNcL9aTbowsVEsM6vtYR7gpA+bQR2CEECDsR9+t4/4KZ52AiG4dbxsINF/GN09klYb0QN7C2T8PmeNcQ6pCIdLWysa4gPvOmiKQBpfqvlKmUeByxGQ4xBXq7wWaq9SkjYAQ2jABKwBwvgBfmUn+R1CAWj86dpE5+rPM0uluHh5kTtIg07shrQhmlLfKdTRL21CUzwtTxhPQ2hD4MbUVb6+wqm3w7LtsIbA8BZsk5c1sCOsUpujC1u2NidUb8+q15GOKYQvLHwIhqW4IITY3Tim01MuVaufxHNoNtUGlpg1cQmlvCKj5REvGqQ5u/LongSiYjYAT2AwF8OUq+GMyuzyaJXI6vjPgA/ABeOSUR7mK0CPOHvXFgRqUtiSOnjhrIkgnXVyqT84xiTxjylC1+mIYCeDEMNLk25UZURBzYiJuMgBHYLwSIufPZCbwAA4cDidODLV+JYTGdP2bie2FZgB97bC+YKx/PPOJibJtw0cYSJZYp5dqH7fMVt90412cEjMDWELjoENYi1//DOeylcU7ZasyNGAEcNHKZtrGoQC5MXOcWIuMJs03spMPDlbb4sh/kzPRkg9gCE7pYnEHgbgYl7LWtEGx5677GCOw2AkgGmCiS1SXmg0wgmcgh6phjVtwVleMqTBUzvKdJQtlHhgU8D4lGh5wGywgE7qS5IZhQzOxyzJnRiLrO27X18wtDccjISFYY5M8MRvYSnI+n7zQCu4oAK+tzDKtm+Bw8bq5DXncMMC2puUEHZkscZdJYcS2p2pHRllwmwz1h+0FJR3ZvuQs0AkbACBwCBLBiwNY3MNRe249JwnMnZ194CGD1IxoBI2AE+iDA8p7sup/rwKixlrjnQQrX+0DiUoyAETAC60IAWSwZdxGcj1k7hJn2t4c0Mc8cRBm9Q4WuCyG3xggYASNwwAgwo8blGRdsgoOQSQTzM+yisdbA/OTYQQuKYN1M+YBfmKs3AkbACBgBI2AEjIARMAJGwAgYASNgBIyAETACRsAIGAEjYASMgBEwAkbACBgBI2AEjIARMAJGwAgYASNgBIyAETACRsAIGAEjYASMgBEwAkbACBgBI2AEjIARMAJGYNsI/B9KCj2erOSd1wAAAABJRU5ErkJggg==;fontSize=11;direction=east;" parent="1" vertex="1">
          <mxGeometry x="352.45" y="204" width="40.83" height="11" as="geometry" />
        </mxCell>
        <mxCell id="Bnfp3k44pGPXT0sWCSnq-12" value="" style="shape=image;verticalLabelPosition=bottom;labelBackgroundColor=#ffffff;verticalAlign=top;aspect=fixed;imageAspect=0;image=data:image/png,iVBORw0KGgoAAAANSUhEUgAAAE8AAABJCAYAAAB8bXubAAAHPklEQVR4Ae2bd8g1xRWHHw1qjGKLJsZeY6yIiR2NirFGBFtii0r8wxbEggr2TghBUUSNHVuIiL0nih2NPcVesfeCvfLA7MuwzOydvXff+/rx7YHLnZ2dOTPnt1POnHMGeuoR6BHoEegR6BHoEegR6BHoEegR6BGYFhGYFVgBOAy4GrgHeAr4APgSeBd4ArgJOBxYYkgh5wf2AK4Hng78vwI+BF4Cbgf+Ciw7JP+xVpsF2A24AXgP+Lbw9z5wEbBKYW/nAI4EHm3B/zxggUL+Yy/2K+A64JtCgVLAvhFGUlPnlwL+OWQbzwCrNTGfindHAG8OKVAdxC+A04CZEoKsDvxvxHZeB9ZK8J6SLAVtGm2uc/eGqfx34Fbg+QIArqgB6IhR8DrYPr8c+FrnsjADmkB2BM45JWhFjZ6VEUaB7gT2D4u1a9TMod7swM+Ao4EXG+rL44RQZxHgkURZN4ZzgMWA2YAZgB8EYNxMXH8fT9ST9xmRHGNP2ridqP/84gcCcxf06LfACwkeFU/B2QK4NlHGUWj9HLkGnwu4jlb84v/ngB/nKk9m/n7A14lO3TjEgqyqEgtVT7+SeP8qsGWDgAcEdajOq/78mwYek/Lq1xk15MLC0VbvlCPk0wRAdUHjZwHP0TGAm05cPpd2WRkbzROU0XpnLgFc14YhFWQV5jrP3PPlwIKZhjYBPmvB66QMn0nJVpGtC6V274I9LM2b2Qzq7fj8ObBVpqEfhR09VS+Xd1yGV+fZ24SjVdwRVYS1R2zJnbREdbFdTy65jWhp4O3Ex437W0/vPmLfi6qrWjyW6Nifimo3F1q+xVTbqYHVOon+1cGKnx3Fv2zg19mrQxIdu6+js+JGCd6xkFX6HcCjWY62LeRT8bsj6IQ5fp3k/wR4KNEx1YEuaM8E70rA+F8LiQp2jlYOa2JcJ5d2U2nSEXNttM7/Q0I4p/AyrTmlK5yc4J8S+tR09Ync+cKpJlU3zvMo+eeJWpOcuDQhnJr7jB2060gqtZDkdtm4G2sOUI619WnfGwv9NGEz82ThOtUFLR4O9fHISKVfAyxbQtoEVZ+qndf+egT0I21XwqCrMupOD9ZGngd087sgz60psOp5Cq51upTsn5vLumFHXXgEJb60zWQ5F2KVyYOBnYNFJFlwiMy/FII3tqk2hAxTUsWRpCGhPspSz5tPSQ+/x416smgyR1Ug6sixbE8RAhsWjjpHp46lniIETiwEr7ImR1Wn7+QPg8+2mppN/47QniIEFg1O6SbQfPcssFBUr08Gv8Qg4HyvHzjlgpyuQdSCWwKeUQE9RQh4nv1XAXgeq7TR9RQh4LEp5w6MR6P+Vo2wPUUI/K5g1AniVR1ZbqKmp/3k6YXgab3uKULA+BDN3/H0TKWN4TOop6cIgV8MMFZWQP6/I/9I1bR2SS3fOpuMYZky8nSg01kHuOk2tEvBqBPAazq0Ga4UolKNe3FEG6OyaptOd1F2Y+CCYBzVw39/WNS3b7Gwn10Inn6NLkhXgWFt1Yiu/v2IYyFDwxQ6F0+iX8BQs0HkdHkgIUglUPyv06kLWg7QhB/zNl7Q/EknTUEekeLGU2kdyFsP6M16iYiDFC/jkw3+6YIOSvRdBX0spPk7JWAq7+IBPSo1uRs5v+QAXiWvNSik4vr+WFJ51DIrhtD8FFCpvCYnjScFPVqpevU81yg3o1HJ0AyXlJi/U7jJcT5qmxP1dTLHDQ9KG2uc65gB1G8V8vtbiw1oorO1hCG29qfeZ2P3Jp2M63X61BtvetY5niM99E1143defBmVjk+0ZyTWWHQ8p40R47FQg9L7ZCRWJzQoaFD96v2ojmkjCwwKqvhV/4dm+td5tt75VCxw1ZH6vyrIXJleuAvXyzc975rhU5JtrGAqFO62kspdlXHk5ULw64J7jyx3DnXH+29L8IZdl9ZIRDfYVwfB2E35fq06UPVnp8dmDV/sHwkeqSj6mK9HM9fcNmTYRioMTsW+KWq+TRutyh6VELwS8pOgQ3nQz9EpiesGni2PzQSFx7w98pWQKpBXt1I3g2xrrxImk1Hm55n7ZH5Nfa65qCUBPT8DvLd1JA2iueOeILozehEmF2FvLN6mwC2Zdhzd3jCaUmoKPPxPiHX7PbABsHe4cGeQdzWK4v+7a3qgd9bi96n0XeFDqfC6PDiSdB5plHBkpep8DIxtZ236Ou6gpXdaU4JUeQJXj2LX4qFu2HTpr6pf+m9cS+mUb5K7s3deMnky85VLhLpywA1DleKPRuBvH5ymN3doUOgMPBl55d2za5tR4rpVqnaoC9aDKEs+jGU8CTnaugq47BS4ipnn1h2CAVQdMKVyeOfr4bCjGlLRhvRvaMfTgJBbNwVL89e/gTND5EFuU2nT9tjKqoOpImh10Ubn/QdB1dKsn8CdcFQyHk9T+Y7AvoDXFkyvH/wQ9fVz1Pb6+j0CPQI9Aj0CPQI9Aj0CPQI9Aj0CbRH4DhUhtmG7OTBUAAAAAElFTkSuQmCC;direction=east;" parent="1" vertex="1">
          <mxGeometry x="396.68999999999994" y="248" width="14.07" height="13" as="geometry" />
        </mxCell>
        <mxCell id="Bnfp3k44pGPXT0sWCSnq-13" value="" style="shape=image;verticalLabelPosition=bottom;labelBackgroundColor=#ffffff;verticalAlign=top;aspect=fixed;imageAspect=0;image=data:image/png,iVBORw0KGgoAAAANSUhEUgAAAEoAAABfCAYAAABPy1FZAAAIWUlEQVR4Ae2cdag9RRTHvyp2d7fYih3YooJ/CLaYILbYigoKBiqKjd3d3Z3Y3d3d3c1H7vW3v/mdvXN273nv7fu5A4+3M3fmnLPfyROzUptaBFoEWgRaBFoEWgRaBFoEWgRaBEZfBMaXtIWkayW9KukLSb9L+l7SR5Iek3SmpFWGEIIpJY09hPy1pKRHJP3t+PtN0u2S5h8kgeeRdLSkuyTdJ+nKoeqsXSX94AAoBfFTSWsPMFibSvrakO3HAeY7CvnDJP1hCJKCUpb/RtKqo1CNKVhJ0s89ZIvh4qBygKS/DEGYWkzDqyVdIOlRo04RuLclsb5FJtai+zN8I/mV0tpIEsO3+MI8sw4wQmYqvPzCkl4z6hbbHl7Kqd4PS0j6NcOzHuUKrRaR9I4hxLmSpjXoTCLpHqN+EajnJU1mtK1btH+GH7wHNE0h6SFDiIsljVfCGaDYbYrApM9/SlqspH3V4jEk3ZHhN+BAnWUIcLOk2Xq8zRySXjLapWBt04NGlZ9mkMSOmtJP81VoVqrL2pMeA96VtEKGytKdQ2cqaJo/NEPH+/MGDpDgPSCJaXWbIcBBDm47G+1SkMgf66DlqXKqk5+HVuU6m0tiHSm+IEeAiTOUWC8uStoVaRSfd8nQ8vxMh6IqFelaz996iFWtM5Wkhw3mezkITS3pKaOtJfzqDnq5KnMZy4PF6/EcoTq/r2O86PuZBbzLZ82SQ2kq/MuSpu826uP/loasKS/yp/TBw2zK1OGEnTI7z6w9auHZRtuUFvlzRm1aq+R8J79NalHv0QjN+7OEOSoKelQusU17jgWoQYy8fhPnNc80R6OYtV9mafutE5DofU7ZE6YVjfz6RltrND0ribWs37SApF8cPJ+UNG6/zNL2JxqM900rleQvM9paQJ1c0r5q8U5OflHT/D/5WJ8woxRf7ktJTMdcYmhjFSi2tZ4x0aycI+b8/XIHP2TYykmvUjXMpiiY/G0naVlna+/u84Qk9Md+E1P3OQdQTE1PR/crj6v9WJKucwhN7x7nopivhCka+7w1aotlzzgOyXluQTVQgj92CM3uuVwQT9bNIiBlz5cE8Qshs6NTaFSgCBsUI/gaJ0/0zsYkPCxlPVosPzJI4hklcbIv0raeGcEYHRuRsEtZXo9UcBbVZYIkXtFQ2FN+5LGiYktvRMJ1ZQmZlj0gadIgiQ908kQVa0zCuZCCYuU5n0WkcSTd4OS5TwTDCBrTSfrcIfRPkhaPYChpZkmvO3hiS/OeAYNEKyfjNcHiaMgZ/Mq5jPzLag6QGNFRZpyRudfMeU0qOE6jUqpiWdOcMo4PHCOGPLGboI6UCdotZwqwS0UkvMt4gLq0e/1HBWtEwsSRemgswSOnwCxOxbtR65PX9oQOOGZQ167hHE10juXBDhKjGhl8ctYISssit+hDnDyvr/YqA1e7zK6egoR2v1SQGMPy/MRWn4stADSmAGetiIR+94pjRGEYxATTiITfDzt0OoLS/N2SJg+SGPNM6pBN+ZF/URLyNSJ5excbelTAmNf+1Cj9DosBDlGrR4tluNZZzyKS1z6+ZwSzKBpeoE4LYshW77GPs3k0xv7Eu6OYvukYURcGAYVCjRGuOFqt5xeCLKhBYkt4hD070KUBjkcclzc5QAK4K8LeMIhQWbRL2svoZf3ayE9yggTviDCiIIhGkLE8yilQrCvTjGhS+QlPsGfKwZd6C1bmMAgNlnf0NHbyXBhjmahEn3iMgt3OwT4eZfMqk6l2+dMOsIgzqHJEwIZEEOyHDtpdkPjfKP9diijhi0VhredPJK2VNizJs0kQ8EUYoUWrV9kOJTQbUTxRSUBs+kLofJtJIp7JSpzLdpfkGaEpbfJM8Xktwk0qw53uOSqw2N4riU1gt84OxVUx1Jz3aoygImDonRM0CZQyWeZzRtoVX87zzLT11DujTLAmlhMfhTXTo+HnXp7boxgGvfEFeIOGVcJSsKEkQpWt62o5gIgdJTqO85BXv6MNtvRhmTgO4HnBnUUw6nc9phDOUQ6mx0tiCncTcQqeC5R3SsL6OewT0XX0OBew2flYyPfuhAsSGcxmYDkCiHzJjUB+j3LVD0ugMR9z0s4BxYjzhHUPSxA8QvOJgBxI/B4ZIeORq3Id1Axs4awNVdQTDyMuAd3iBGoPD8GhqMMFnYM7H4TAC3NjR+WI9HqwiFt3l9MRRqh243Y7bEpHSeJSYyoweWLRWaQjEuZji0daFmVmjpD5XxrsWh4fHp8b6XdkMULecAAFr6j7yCFAEZyPezrtzbL8CX1yPcbJ64g++YQ3X9d56OsCR8hg3YCMRZ0XqFGAG+Pg7CLOVzG6IHj+31pTi2fnvMrBiw9A0HmNSti60dk8AHXreC8/pi+6nvM6GR+kaFxiYfXcluqCxH+cAVUTG4DHHoVO10ib09ySvqowourcmiKGwRPsAW3MxI1MKKsfOIHCOlD1U0cE53NgLY5I6/ktSQs1EqGOUCimHn8/p+iNK74Io8NjlON+ctH0UpHN4FTHCNerxzHM8W2EqtfKOAZYX+hIRxP29TkH51X751L26RDcSdiUqlzIYRfFKuAJ7sBH11hnpgUrUStEiKS9TZ4dkW+r8MEadkhcV2niZD+7pG0lsWvlzMPYyiODY1N5BjTPGafXd+Mw5XLdnxAfXFF8aQwnJqMCZ4PHlYUBjrqNXrQ9KG9f03trjcS0jG8gMCUbcR3DA0auDp+FLJuG6cvn8kzBBzsH1Kio4Zz8g/o7C/J+TlOIBRaBF0wxbj30Gzc1qC9elxkLN05HIuo4NVsneMq4V4dd+/QOOMQYjBaupbrAte1aBFoEWgRaBFoEWgRaBFoE/ucI/APpizKRHE6EPAAAAABJRU5ErkJggg==;direction=east;" parent="1" vertex="1">
          <mxGeometry x="310.77" y="154" width="11.68" height="15" as="geometry" />
        </mxCell>
        <mxCell id="xpsuu7LTEluh2EXMMEZl-6" value="" style="endArrow=none;html=1;strokeWidth=2;" edge="1" parent="1">
          <mxGeometry width="50" height="50" relative="1" as="geometry">
            <mxPoint x="234" y="508.21" as="sourcePoint" />
            <mxPoint x="297.94999999999976" y="508.21" as="targetPoint" />
          </mxGeometry>
        </mxCell>
        <mxCell id="xpsuu7LTEluh2EXMMEZl-10" value="" style="shape=image;verticalLabelPosition=bottom;labelBackgroundColor=#ffffff;verticalAlign=top;aspect=fixed;imageAspect=0;image=data:image/png,iVBORw0KGgoAAAANSUhEUgAAAUIAAAB5CAYAAABMZyhGAAAXI0lEQVR4Ae2dC/RF2VzHvxWKSilK7wclj8qjh8c0mllRDDL0LkSJ0lIhCcmjvCq0yqNaRQ+ZZpTJI0aKEWOI8SyKlIwShbx60GN91tzd2u3Z++zfuXef87/3///utc4695x7zt77fM7dv7sfv4fkZAImYAImYAImYAImYAImYAImYAImYAImYAImYAImYAImYAImYAImYAImYAImYAImYAImYAImYAImYAImYAImYAImYAImYAImYAImYAImYAIjCVxN0o9IOkvSSyS9VdK7JX1Y0n9J+ldJF0t6g6RnSXqUpJtJ+uSRlXBeJmACJrA2gc+UdAdJ50v6gKT/mbn9t6TXSnqMpC9bu/IuzwRMwAR2JXAnSRfNFHxTgvL9ks6WdOquFfP9JmACJrA0gc/ZDG0Z7k4Jtm2/+5CkJ0i6ytIP4vxNwARMYBsCN5f0lqAAfNNGYP7OZujLnrnBvwre/wpJp29TSd9jAiZgAksRuI2k93aE2EcknSvpmyXRc7xMURmOOX+7YK/yHyTdosjDhyZgAiZwJATOlPS+jhBkNfjuki4frCGrxawyv7mTL8LQPcMgVF9mAiawDIEbSXpPR1hdKOnrtiweFZpXd/J/p6Sv2DJ/32YCJmACOxG4qqQ3doTUKyVdf6dSpFMC5Vwg6Uo7luPbTcAETGAWgctJekZHCKIg/U2zcm1f/F0bpeup1eYntm/3NyZgAiYwngALGh/tCMJHDyz24yX9eqe8f5d0xsAynZUJmIAJNAnQG3x5Ryi9ThJD55EJ65J3dMp9gaQrjCzUeZmACZhAjcAdO8KI4evP1W4ccA59w6nhMYrc3zmgHGdhAiZgAk0Cl5X00o4wwoHCTZo57PYFOoi9IfmfSfqU3Yrx3SZgAibQJsDiR08Q/Ymkz25nsdM3V5f0qo4gxlnDLXcqxTebgAmYQIPAx0o6pyOEGLY+pXH/iNMoZEfq8FsjCnMeJmACJlAS+HxJWHJMzdHx3Z3LGwcf3z9Qh7+W9LmDy3V2JmACJiBca/WEIN8vbfLGYkikHt/jd2YCJmACown8QUAAfXAFczcWYiKCEIVvhvNOJmACJjCEwKdJ+tuAAPobSV8ypMR2JtgV/3OgLtT389rZ+BsTMAETmEcApwmRXhi2xcwlLpm+dIbfwpsuWRHnbQImcLIIPCwoCNHh+4yF0XzBjDAA91u4Ls7eBEzghBDAzvfZQUH4x5KuuDAXgkIRCS/SQyXOiZMJmIAJ7EyAHt5fBAXPMyUhOJdMnyoJm+KIIMQm+tOXrIzzNgETOBkEmJMj/nBE8KDsvHT6hBk9VMz9rrF0hbbJ/+MctHkbbL7HBI6MwK2DQhBBuYZFBzKk5wsxF9q3PTJyRcFoeKPc+BuS6Do/X9J5kp4q6QGSTpP0ScU9PjQBE9gPArTRXLBMfX7yClVGN/D3Z9Tp3ivUabKIj5H04GCIP5bd7zKZ29gvmce43iagDHX8bnusGAvYuR0bAj2HqLlg/LWVnjpib5zq9biV6lQthnkFhFuqTHT/XEkoby6ZmPxldes/i/r9ue0Tl8TuvA+UwPOKdjLVlp+00jOeNaNOv7dSnS5VzKkBT7JTMF+zYCAW/JRNBZFGGKKn5GQCJnCJKszLZgidX1oJGtNqUzIk/45puGgY0WHV/1pJ72pUEj9hfPc2SQR7zitbfmYucXRibuF3O+VSj3uNLtj5mcCBEiDgei+2cN521xqG4uorL3fq8yvWVqFhOFyD9l5JdJlvJYm4AzhtxFUPS9utB8Dl9u0H/3hw6vjuiTJTXe45uFxnZwKHSoA2E7HrTW3n51d60Dnzltg/r2ZzzKovnmkTkLQnOPM3VuBw/Qsr16f72JMfEe9HJYRvnn/tMwL4q0cV6HxM4MAJXLMyl15rN+ncI1d63l8JtOVUp/dLopO2SqLHlwpOe+b6btgoHUH4p5V70r3seYCR83VP65RHmXisWNpWsoHEp01g7wh8VaDN5G32Z1Z6gifMqBedm2uvUa+7Vf41mAes9QRTfdAtvCjwMN+Sbthxz0r0GwPl0UtF7ccpRoA/KoYd3voMDtE33s0DbSYXhKiirZF+cWa9rr90pb6ooidIoOV7dArGp9g/Bh7mJzr5RL/GmSOLNflLq30GsFOMwEM2K/DMC3vrM2Chbmk73Nibi1/17YE2k7ejB8az3unKx8ys1yk7lRa4+fGVChF7tDe3922V+3Kg6fNjA3WIXPLQYHmOiRqhqbDb9vQevb/kTxhheEgpMq+ev9u13F49OtieU93o2S6WmD8oV5T+XtK1AiWib5QqObX/yUBekUtqCzlluShYf2EksxN+DVMHmEuW/HzcZ8K8+dKOS0f+PH9w5nu+z8jCJ/J6+Mx6EQ95kURjqNn7/XKgNBZKsOyINJwRc4RXlXRxoLy/PMChSwD3IpcwZRF5f77m/3N6+iJvY7lMf3Tme+b6NVJ0hJd+f4uN9OgNEqglFcSe44jqyXU3K8L5vbXP9DZHxD8gKHUt//IcZjtOMQJM/KMq8XcbJXkU5fdl+ydJbO/MNuajCUXJ9o7NHyN/jm/fbIxkWODjedKGBsFbNxu6aG/ZbGk+lJCRWCmxvWmzsSDHxp8qPvzY3rDZMPXChdQhpbl/eD+80sM9KNimUxtfLMQoGuSpkLTHTjgyGcwke7pnav8cSZcZABYlz6ly0nejXyI/+itLQjsf077jmK4m6Yv3bGN6g0U8Nj7nG6vc5cZQNd/KFXA0HPKN95lvGAiwfVaxMRLJtxG/5bV/Q3M8z9CO1rLKmjs0vvsS4HCV/fqKcCHuaS8hEF5cuTcJo3yPWs6u6XKSXhQoD12j6+xaWHb/jSXhIYPeAj1b5ihvlH3vjyZwCASYo8/bZO/zfVd6qLmLJXddol6YypVA6P7z79dLCAPUa8r7y2OGLSMWLvj3Z5hU5l8eI7B6K929Z0vf86+IMnhZBqaGTCk4mcChEMDctPwdTx2PWtzs8UGbZKoe5Xe42Rue0B4vC0LTO5J+oXJvmRfHBJMeodiMvXIt//LcuZHKB645Q9K/TZT525LwsOtkAodAgJ5U2Vamjn9qpYdiUXaqHuV3txtdLxpxafCM2glxT3uJICoEUykrWTsetcoTNcUZobjNsP/8zvMR7pDgM04mcAgE6EnV2mfrHPP/a6Q5tsbUlQXT4YmVXBo0jf6PJLFwwlxcL50u6aMBsKzUMTm9a2KoSz1bLy2dx+Ikstrdqw91Zvib8q3tUag9RFOr3rP7++NJ4MzO77n8jf/sShjKzlhZj/I40lHbqupX2MypXXbG3TXHDGWFOR7lURaPEz3BRHkI3hEh/1ilnIr2xYLMd8zg5UtN4KgJ4C+g1kZb59byPkOQqFYdaucXtzWOvig8uqBVX6tkeQ77xhGJVewy79oxaj8jEo4d8HBdK4NzWGM4mcAhEcBGt/V7rp1fyx9hxMFyqt9q3mciL/aWQaAoq6KTNSIRUSvBmNqP9JjBinrZK2SVnFUuL5KMeKvOY00C9KSm2k753Voeqs+eUa8P7VNs46hrbWIRjEj0zi4Iwvr6EQVmedxAEtG8/lASq+TMjTqZwCESwKN8+cdeCr/8eI2YJS3z3rwe+We80jNtdeQJoYR5Ul651udRy9xfXjEBrJWJaRUWAUsk5lGdTOCQCWBxg6lhre3Uzj1xhYdlsRF1t1r5tXPoOO+Fs+XbBCuNvWZEKTvCGpOaGpTy3AsGmfFF6uRrTODQCNCJIfhR2W5ax2vENcZUkeBurTqU57Es+8R9AI9/wrJytePfHFjZiFt+6oCpjpMJmECdAL4DWEystdfaOdRalk6o6uGHoFZ+7dwzlq5QJH90+fDSUatgeY6FhhHpKpJeFSwTSxAnEzCBNgGsocq22joe2Zlp1WiucF5j3rJV1/87z/J7xEX+yHE8K10Re2ZcMmGL7GQCJtAmgJJ0S/CV59cQhJEImHm97t1+tPW+eUQQ4q8OrNKPBcvEI8zlB5brrEzgOBKYY2/MMHRpy6m585ajFmC3frcImV7IziS5R1a25jk7lZPv19J52hqgbzSBPSBwWrBjQdti7m7pzgVaHji8zdty6zPK1F951Axx2BlxgYUn4VF6Pi1fiTVQi8UxOGrwK5aPD0dvMQb8Ng8x0TYjoS5oY2hhLO1UhOks1N5qbbo8h3u9pdTjwu/yZsHK0msc9S+Cv7+PBMrFdfuIIDpYi1xxYP3DcI/4Qrxvow0w5XKs/FGe9OOXSrrSEb+3bYpH9QQBF3l/L5G0tMCP+hCgvs/aB4uuaLwDYpSOStH5QYRvJKxAq170dpn/JAjVyyTxA8CSBMeUuHo/7ikabiHSeE7SNTTMpefQlvjt1UJz1N4b2hojOhhTz0BMdIa8tfLLcz89ldFa30U9RIxSm+G58FxTwqgdY/q2TWLFititBACq5cu5f9lcc4g/+AgTngvF2dbz+3ybDYGdRriYi7ynkddE3XER5Ioe25Lp1OBvD22Vmy5ZkUje6A+eF6gwAmVUDwpXWlPeX/IGihOIuYlhzbMDz5TKWUO5dO4zjLr+tsEpiMTC+0uE46FGSiRIF3P5vff4AUmYty6ZWFjt1YPvMeslyNaRJoTShYEKM6wk0tuIdO2gfTHCdy4geoLlCjjzjMyT4XqoZYY0OjLeCE6j8vihjcfxV0ry1meAYu8c/52j3tOIfObo7tFjWzJF1XlwGn3kvFmpQUm6J7nROwLyiHSXQHnUB4E2xyUWc4llTxDFUeZCkmOFlpsxDNaXnjwewW7bPDBmR6/LW5/BiBg8276nEfc9Kti+lnY+HFXwXiuQ1CRblrgJlN0ThPSoRsV7jc5bzfWiWy7APL6y0IKKQetZtxmGT8L1lyZwBATQx4u45FpSP5cV7IgvwvdIYjh/5CmqezTKazOBk1i5bQmj/DxqPdHExO+7snxRI6j1YG+dXZOXxWcWV5xM4NAJsEgWiRHOyjgjhCUS2hqoIZVtrDxmBLcXKerHbJQgxIHk+wKAUAydM1TNw4+iM9dahXrARNkP34s34kqYwO4E7jzxO0/CiEUKlOyXSLS/WszwVDZ7VotZzNuLxGJExOsMsQdGDI2Jp5rDaH3GvjiaEOa5Rn1rFZi5nylXY98bLdDXmcCeE6Cn99pAW8Mf6BIpMj/IAuxe+B8EAIslrwsAI5A7qja7JII9fTBQFsKR4PTRhDJmEqioBRDGtJboYb4tuzbdw57wpfRWnUzguBC4b+O3nv/uMS6IhPidw6SmuZGXmT6zqrxXiRXhVLnWHumN/8BtE/GI3x4oJ5UfjU+CSg8es9N9zHtgVlZLd8iuS9enPWolrftqefmcCew7AWyJXz3xm+e3T8dkzlx85JnvGIiLjjwZZa4bqVPomikBkQQFgVWYAN0mXX2jv5by6u0RmFGdxdJOGp25WuJfj15tq+xtLVhqZfmcCewLgW8N+BmlIzRnPn7q2VgBZlqr1c44j9ndXmpo4IwApeOpyvPdfaYINL5De/35gbzzsrk+mrB/TvcSJL7lwBUh3lqkYVh8w2iBvs4EDozAOVkbSW0l3/P7H2HryxpC3h7zMvLPeNLe2xRRwsQqY06vELvHliVHDqb8jKOASGLxg1VgXIhhVoTeYCshxMty0vH5+zRp23oAnzeBLQmwIJpPH6Xffb5Hn+9OW+afbruHJGIT5/mWn/FPuMsUWyprsT1d2kg4QP5dej4JryGJcIG95fMSUjq+yYynRGeKbj1R9VpmOqxMlWZ3qSz2e+EifMYz+1ITmEuAhcApByS0A6akvm8L7RDm1jFR7fk0xTdhayFz7vMsej2ruj2JDrDXSEINBl0hHgwhel1JGFkjKCPD7FwQ5Z/xijHaYSSxUVq+D/FA0xpOLwrbmZvAygRYgOT3nre38jPTR9jkR1100Sl6bEAbBGOHG6/8vDsVd69gQCUAMrdAYCUEX9TvWAm+PGbidnQiFGhZTjrGHdhxdcM1mqPzO3wCzIXT2Ui//9Yef4X4KaWDg04ioyraCXuOryfp/kFdRbxPc/3BJbTSEXAtSHPPXyDpecH87jmYFi65plQICGrvZAIniQCjuBcG2yPqNaiWYbJKJ4U9x5GRI3KCdj/Xg9RevQv0/giuFAm32RKM/BP8+Kab/eIAeEzjrjWYwjdMlIvXnUN0yT4YkbM7gQSw+X9QYF6v1bZ75+l1sniyd7qC277rr9l4OUao9R4+fc8/BgIw/RMg3FqqK+ke9jhr3dV6JX9OVpWfMlFvhsxOJnCSCTB/Tq8tEtM8b6utz/Qg8XjfW1A9WOb4sztdEnOI2PJimoPiJBuOFfH7h1+xMyTh7DVPd5sQRjlQ3HONTAji1krZf0gipoKTCZx0AhgbECny6TssdGKmy6IJI8kTl1BX6XV9sTskcFIu8FqfWbUemX5golyUtnt1H1kX52UCh0CA+UNUYZ60mQ9E7w9/paz6og7H2gHxXF4u6WkbRWw6P3utG7gP4Fmyj8wz4hJoZLAchBw91ZbQZf7CyQRMYJoAOoKsEhOvCJ+fjLKwRLOmxTS3S307NUeXC6kpq5BLZRo4wbC3FcuXf7dWICrmFXHrn1z7B4ryJSZgAodKgAaPjhA++B4siXm80wYPF5kwbbm9yoUgXW4mbUcmYhnnZeSf8a3Y+kfDcwbDZralfLWNfE7nZQImsCWBUzaeWErfgChFM583SoUl4g8NAYXrrBFOXxMOuvJTuoO4668llEWxO05C87m2Qa5h8jkTOHwCODTo2QCzAsQq8S4JM7lIbBKEL6Z5I1MrUh0CjslfBGUtoXWfm+KhZ+VkAiZwzAhgHxzVF3rgjs+OJ4uI2R3BW0b2BhnyoseUenXlvuV3kPtyF0IIxBOpCrDje/ftJrDXBG5QRHkrBUR5fNYOT4M3mIsmhFEqC28Vo20Q6cni5SKVke8Rbq25SBZP6C2m6xmuEyfZyQRM4BgRwKNEauSRPaontXCYESQMvyNlPDSS2cxrEKytsnHFxTxgLeX+CunJjnZfXivT50zABFYkwHxd1Mg6CRG0zLdJ+CKMxCa5cGKubpty0z04UUjPUO5b4TrpReaOK1kkcfySRNR7EzgmBFBUnmMrjABpCY0pJNgJRwQumuoM1ZdIKHCXAjAd1zzwYh2DDmO6hjnUWyxRMedpAiZwtAQIntTzHpsEAXv8C26jQjMVMzjlj2PIWy2Ig7m+fOU3lcseBxJlwiNvbvny1PICH5uACRwPAghCotDlQmHq85yYwokQwV96K9IIHBS3l0zMARIqsPZ82ESmxHV4yMm94rBYsqvaUMrfexMwgT0jwNA4nwOrCYl0bpse0f0kEVg95VHbIwTXig1CL69Wh2dudBYRgC8qrsHW2QHe9+yH6+qYwEgCuMUqG34pKD4s6XGSML2LJuxx6T22bHpTGdj2fn8000HXRYbpqX5YoVgIDgLvbExgnwm01GcYGhK3A0/OcxIBj7ivNxxmkQY/hmsnFKQR0lNzo5gY4m5opNebtZ/T5ZmACcwggJVEy7QOv2LYH/fc1tNbvKakh0l6czG0TL2rfE98A1z3HGXCvxqrwnjNxkkrC0GYED55Qrn6KOvrsk3ABBYmMBXNjTk+HC5gZoZHGkLvXWcjIG8v6a6SmD+MqOFcLIl5w5Fu93dFg3/CK282Ps+ZAti1bN9vAiawRwTQmXtOoCeX9+rmfEZt5dwtVW/2CJOrYgImcNwJYD9LbBBiEs8RclPXsiJ8nqQzjzs8P58JmMDxIoDrK8zcpgRc7zuUo1kwOVUSAWCcTMAETODgCLCyipLxOUFP0vQiXy/p7I33ZuyKnUzABEzABEzABEzABEzABEzABEzABEzABEzABEzABEzABEzABEzABEzABEzABEzABEzABEzABEzABEzABEzABEzABEzABEzABNYi8L90HHfHNVhBNwAAAABJRU5ErkJggg==;" vertex="1" parent="1">
          <mxGeometry x="212.17999999999998" y="516" width="41.55" height="15.61" as="geometry" />
        </mxCell>
        <mxCell id="xpsuu7LTEluh2EXMMEZl-11" value="&lt;font style=&quot;font-size: 16px&quot;&gt;Input&lt;/font&gt;" style="rounded=0;whiteSpace=wrap;html=1;" vertex="1" parent="1">
          <mxGeometry x="503.24" y="140" width="104" height="29" as="geometry" />
        </mxCell>
        <mxCell id="xpsuu7LTEluh2EXMMEZl-12" value="&lt;font style=&quot;font-size: 14px&quot;&gt;BasicConv1&lt;/font&gt;" style="rounded=0;whiteSpace=wrap;html=1;" vertex="1" parent="1">
          <mxGeometry x="494.24" y="191" width="120" height="29" as="geometry" />
        </mxCell>
        <mxCell id="xpsuu7LTEluh2EXMMEZl-13" value="" style="endArrow=classic;html=1;" edge="1" parent="1">
          <mxGeometry width="50" height="50" relative="1" as="geometry">
            <mxPoint x="554.1000000000001" y="170" as="sourcePoint" />
            <mxPoint x="554.1000000000001" y="191" as="targetPoint" />
          </mxGeometry>
        </mxCell>
        <mxCell id="xpsuu7LTEluh2EXMMEZl-14" value="&lt;font style=&quot;font-size: 14px&quot;&gt;BasicConv2&lt;/font&gt;" style="rounded=0;whiteSpace=wrap;html=1;" vertex="1" parent="1">
          <mxGeometry x="494.24" y="340" width="120" height="29" as="geometry" />
        </mxCell>
        <mxCell id="xpsuu7LTEluh2EXMMEZl-15" value="&lt;span style=&quot;font-size: 14px&quot;&gt;Split(x, c//2, dim=1)&lt;/span&gt;" style="rounded=0;whiteSpace=wrap;html=1;" vertex="1" parent="1">
          <mxGeometry x="480.24" y="250" width="150" height="28" as="geometry" />
        </mxCell>
        <mxCell id="xpsuu7LTEluh2EXMMEZl-16" value="&lt;font style=&quot;font-size: 13px&quot;&gt;x&lt;/font&gt;" style="text;html=1;resizable=0;autosize=1;align=center;verticalAlign=middle;points=[];fillColor=none;strokeColor=none;rounded=0;" vertex="1" parent="1">
          <mxGeometry x="554.24" y="221" width="20" height="20" as="geometry" />
        </mxCell>
        <mxCell id="xpsuu7LTEluh2EXMMEZl-17" value="" style="endArrow=none;html=1;" edge="1" parent="1">
          <mxGeometry width="50" height="50" relative="1" as="geometry">
            <mxPoint x="454.24" y="230.57999999999993" as="sourcePoint" />
            <mxPoint x="554.24" y="230.91999999999996" as="targetPoint" />
          </mxGeometry>
        </mxCell>
        <mxCell id="xpsuu7LTEluh2EXMMEZl-18" value="&lt;font style=&quot;font-size: 14px&quot;&gt;Part1&lt;/font&gt;" style="rounded=0;whiteSpace=wrap;html=1;" vertex="1" parent="1">
          <mxGeometry x="480.24" y="290" width="60" height="29" as="geometry" />
        </mxCell>
        <mxCell id="xpsuu7LTEluh2EXMMEZl-19" value="&lt;font style=&quot;font-size: 14px&quot;&gt;Part2&lt;/font&gt;" style="rounded=0;whiteSpace=wrap;html=1;" vertex="1" parent="1">
          <mxGeometry x="550.24" y="290" width="80" height="29" as="geometry" />
        </mxCell>
        <mxCell id="xpsuu7LTEluh2EXMMEZl-20" value="" style="endArrow=classic;html=1;" edge="1" parent="1">
          <mxGeometry width="50" height="50" relative="1" as="geometry">
            <mxPoint x="554.24" y="279" as="sourcePoint" />
            <mxPoint x="600.24" y="289" as="targetPoint" />
          </mxGeometry>
        </mxCell>
        <mxCell id="xpsuu7LTEluh2EXMMEZl-21" value="" style="endArrow=classic;html=1;" edge="1" parent="1">
          <mxGeometry width="50" height="50" relative="1" as="geometry">
            <mxPoint x="554.24" y="279" as="sourcePoint" />
            <mxPoint x="510.24" y="289" as="targetPoint" />
          </mxGeometry>
        </mxCell>
        <mxCell id="xpsuu7LTEluh2EXMMEZl-22" value="" style="endArrow=classic;html=1;" edge="1" parent="1">
          <mxGeometry width="50" height="50" relative="1" as="geometry">
            <mxPoint x="554.04" y="221" as="sourcePoint" />
            <mxPoint x="554.04" y="251" as="targetPoint" />
          </mxGeometry>
        </mxCell>
        <mxCell id="xpsuu7LTEluh2EXMMEZl-23" value="" style="endArrow=classic;html=1;exitX=0.5;exitY=1;exitDx=0;exitDy=0;" edge="1" parent="1" source="xpsuu7LTEluh2EXMMEZl-19">
          <mxGeometry width="50" height="50" relative="1" as="geometry">
            <mxPoint x="555" y="320" as="sourcePoint" />
            <mxPoint x="555.24" y="340" as="targetPoint" />
          </mxGeometry>
        </mxCell>
        <mxCell id="xpsuu7LTEluh2EXMMEZl-24" value="" style="endArrow=classic;html=1;" edge="1" parent="1">
          <mxGeometry width="50" height="50" relative="1" as="geometry">
            <mxPoint x="553.24" y="370" as="sourcePoint" />
            <mxPoint x="553.24" y="400" as="targetPoint" />
          </mxGeometry>
        </mxCell>
        <mxCell id="xpsuu7LTEluh2EXMMEZl-25" value="" style="endArrow=none;html=1;" edge="1" parent="1">
          <mxGeometry width="50" height="50" relative="1" as="geometry">
            <mxPoint x="554.24" y="380" as="sourcePoint" />
            <mxPoint x="653.24" y="380" as="targetPoint" />
          </mxGeometry>
        </mxCell>
        <mxCell id="xpsuu7LTEluh2EXMMEZl-26" value="route1" style="text;html=1;resizable=0;autosize=1;align=center;verticalAlign=middle;points=[];fillColor=none;strokeColor=none;rounded=0;" vertex="1" parent="1">
          <mxGeometry x="404.24" y="405" width="50" height="20" as="geometry" />
        </mxCell>
        <mxCell id="xpsuu7LTEluh2EXMMEZl-27" value="&lt;font style=&quot;font-size: 14px&quot;&gt;BasicConv3&lt;/font&gt;" style="rounded=0;whiteSpace=wrap;html=1;" vertex="1" parent="1">
          <mxGeometry x="494.24" y="400" width="120" height="29" as="geometry" />
        </mxCell>
        <mxCell id="xpsuu7LTEluh2EXMMEZl-28" value="" style="endArrow=classic;html=1;" edge="1" parent="1">
          <mxGeometry width="50" height="50" relative="1" as="geometry">
            <mxPoint x="554.46" y="430" as="sourcePoint" />
            <mxPoint x="554.03" y="450" as="targetPoint" />
          </mxGeometry>
        </mxCell>
        <mxCell id="xpsuu7LTEluh2EXMMEZl-29" value="&lt;font style=&quot;font-size: 12px&quot;&gt;ConCat&lt;/font&gt;" style="rounded=0;whiteSpace=wrap;html=1;" vertex="1" parent="1">
          <mxGeometry x="513.24" y="450" width="76" height="19" as="geometry" />
        </mxCell>
        <mxCell id="xpsuu7LTEluh2EXMMEZl-30" value="" style="endArrow=none;html=1;" edge="1" parent="1">
          <mxGeometry width="50" height="50" relative="1" as="geometry">
            <mxPoint x="653.24" y="460" as="sourcePoint" />
            <mxPoint x="653.24" y="380" as="targetPoint" />
          </mxGeometry>
        </mxCell>
        <mxCell id="xpsuu7LTEluh2EXMMEZl-31" value="" style="endArrow=classic;html=1;" edge="1" parent="1">
          <mxGeometry width="50" height="50" relative="1" as="geometry">
            <mxPoint x="454.24" y="549.8800000000001" as="sourcePoint" />
            <mxPoint x="517.24" y="549.71" as="targetPoint" />
            <Array as="points">
              <mxPoint x="517.24" y="549.71" />
            </Array>
          </mxGeometry>
        </mxCell>
        <mxCell id="xpsuu7LTEluh2EXMMEZl-32" value="&lt;font style=&quot;font-size: 14px&quot;&gt;BasicConv4&lt;/font&gt;" style="rounded=0;whiteSpace=wrap;html=1;" vertex="1" parent="1">
          <mxGeometry x="494.24" y="490" width="120" height="29" as="geometry" />
        </mxCell>
        <mxCell id="xpsuu7LTEluh2EXMMEZl-33" value="" style="endArrow=classic;html=1;" edge="1" parent="1">
          <mxGeometry width="50" height="50" relative="1" as="geometry">
            <mxPoint x="554.4300000000001" y="470" as="sourcePoint" />
            <mxPoint x="554" y="490" as="targetPoint" />
          </mxGeometry>
        </mxCell>
        <mxCell id="xpsuu7LTEluh2EXMMEZl-34" value="" style="endArrow=classic;html=1;" edge="1" parent="1">
          <mxGeometry width="50" height="50" relative="1" as="geometry">
            <mxPoint x="554.9000000000001" y="520" as="sourcePoint" />
            <mxPoint x="555.24" y="540" as="targetPoint" />
          </mxGeometry>
        </mxCell>
        <mxCell id="xpsuu7LTEluh2EXMMEZl-35" value="&lt;font style=&quot;font-size: 12px&quot;&gt;ConCat&lt;/font&gt;" style="rounded=0;whiteSpace=wrap;html=1;" vertex="1" parent="1">
          <mxGeometry x="517.24" y="540" width="76" height="19" as="geometry" />
        </mxCell>
        <mxCell id="xpsuu7LTEluh2EXMMEZl-36" value="" style="endArrow=none;html=1;" edge="1" parent="1">
          <mxGeometry width="50" height="50" relative="1" as="geometry">
            <mxPoint x="454.24" y="550" as="sourcePoint" />
            <mxPoint x="454.6700000000001" y="230" as="targetPoint" />
          </mxGeometry>
        </mxCell>
        <mxCell id="xpsuu7LTEluh2EXMMEZl-37" value="" style="endArrow=classic;html=1;" edge="1" parent="1">
          <mxGeometry width="50" height="50" relative="1" as="geometry">
            <mxPoint x="653.24" y="460" as="sourcePoint" />
            <mxPoint x="588.24" y="459.71000000000004" as="targetPoint" />
          </mxGeometry>
        </mxCell>
        <mxCell id="xpsuu7LTEluh2EXMMEZl-38" value="route2" style="text;html=1;resizable=0;autosize=1;align=center;verticalAlign=middle;points=[];fillColor=none;strokeColor=none;rounded=0;" vertex="1" parent="1">
          <mxGeometry x="654.24" y="405" width="50" height="20" as="geometry" />
        </mxCell>
        <mxCell id="xpsuu7LTEluh2EXMMEZl-39" value="" style="endArrow=classic;html=1;" edge="1" parent="1">
          <mxGeometry width="50" height="50" relative="1" as="geometry">
            <mxPoint x="555.24" y="530" as="sourcePoint" />
            <mxPoint x="644.24" y="530" as="targetPoint" />
          </mxGeometry>
        </mxCell>
        <mxCell id="xpsuu7LTEluh2EXMMEZl-40" value="&lt;font style=&quot;font-size: 12px&quot;&gt;MaxPool&lt;/font&gt;" style="rounded=0;whiteSpace=wrap;html=1;" vertex="1" parent="1">
          <mxGeometry x="517.24" y="580" width="76" height="19" as="geometry" />
        </mxCell>
        <mxCell id="xpsuu7LTEluh2EXMMEZl-41" value="" style="endArrow=classic;html=1;" edge="1" parent="1">
          <mxGeometry width="50" height="50" relative="1" as="geometry">
            <mxPoint x="554.19" y="560" as="sourcePoint" />
            <mxPoint x="553.76" y="580" as="targetPoint" />
          </mxGeometry>
        </mxCell>
        <mxCell id="xpsuu7LTEluh2EXMMEZl-42" value="" style="endArrow=classic;html=1;" edge="1" parent="1">
          <mxGeometry width="50" height="50" relative="1" as="geometry">
            <mxPoint x="594.24" y="589.6599999999999" as="sourcePoint" />
            <mxPoint x="644.24" y="590" as="targetPoint" />
          </mxGeometry>
        </mxCell>
        <mxCell id="xpsuu7LTEluh2EXMMEZl-43" value="&lt;font style=&quot;font-size: 12px&quot;&gt;Feat1&lt;/font&gt;" style="rounded=0;whiteSpace=wrap;html=1;" vertex="1" parent="1">
          <mxGeometry x="644.24" y="520" width="76" height="19" as="geometry" />
        </mxCell>
        <mxCell id="xpsuu7LTEluh2EXMMEZl-44" value="&lt;font style=&quot;font-size: 12px&quot;&gt;Feat2&lt;/font&gt;" style="rounded=0;whiteSpace=wrap;html=1;" vertex="1" parent="1">
          <mxGeometry x="644.24" y="580" width="76" height="19" as="geometry" />
        </mxCell>
        <mxCell id="xpsuu7LTEluh2EXMMEZl-68" value="" style="endArrow=none;dashed=1;html=1;strokeWidth=2;" edge="1" parent="1">
          <mxGeometry width="50" height="50" relative="1" as="geometry">
            <mxPoint x="206.52" y="509" as="sourcePoint" />
            <mxPoint x="375.3599999999999" y="509" as="targetPoint" />
          </mxGeometry>
        </mxCell>
        <mxCell id="xpsuu7LTEluh2EXMMEZl-69" value="" style="endArrow=none;dashed=1;html=1;strokeWidth=2;" edge="1" parent="1">
          <mxGeometry width="50" height="50" relative="1" as="geometry">
            <mxPoint x="296.52" y="599" as="sourcePoint" />
            <mxPoint x="296.77" y="429" as="targetPoint" />
          </mxGeometry>
        </mxCell>
        <mxCell id="xpsuu7LTEluh2EXMMEZl-70" value="" style="endArrow=classic;html=1;strokeWidth=2;" edge="1" parent="1">
          <mxGeometry width="50" height="50" relative="1" as="geometry">
            <mxPoint x="296.77" y="429" as="sourcePoint" />
            <mxPoint x="296.77" y="409" as="targetPoint" />
          </mxGeometry>
        </mxCell>
        <mxCell id="xpsuu7LTEluh2EXMMEZl-71" value="" style="endArrow=classic;html=1;strokeWidth=2;" edge="1" parent="1">
          <mxGeometry width="50" height="50" relative="1" as="geometry">
            <mxPoint x="377.52" y="509" as="sourcePoint" />
            <mxPoint x="397.52" y="509" as="targetPoint" />
          </mxGeometry>
        </mxCell>
        <mxCell id="xpsuu7LTEluh2EXMMEZl-72" value="" style="endArrow=none;html=1;strokeWidth=2;" edge="1" parent="1">
          <mxGeometry width="50" height="50" relative="1" as="geometry">
            <mxPoint x="296.69000000000005" y="508" as="sourcePoint" />
            <mxPoint x="364" y="439" as="targetPoint" />
          </mxGeometry>
        </mxCell>
        <mxCell id="xpsuu7LTEluh2EXMMEZl-75" value="" style="shape=image;verticalLabelPosition=bottom;labelBackgroundColor=#ffffff;verticalAlign=top;aspect=fixed;imageAspect=0;image=data:image/png,iVBORw0KGgoAAAANSUhEUgAAAWgAAABhCAYAAAD7nTupAAAZWklEQVR4Ae2dB9QFOVmGXxSkKAqCIFKktwVEpDcBpSN9AakqwrKAIHWRKkhVQWTpSO+wHKogvYmAUlQsFAFFelVWOpbzHCa7ISaZzEzu/efe//3OuWfKnUky70y+JF+VTEbACBgBI2AEjIARMAJGwAgYASNgBIyAETACRsAIGAEjYASMgBEwAkbACBgBI2AEjIARMAJGwAgYASNgBIyAETACRsAIGAEjYASMgBEwAkbACBgBI2AEjIARmIPAKSRdSNJRkh4s6U8lPVzSXSVdSdJZ5xTqe4yAEdgJBE4z9P9rSLrD0PfhAfCC35Z0cUlnXPgkPybpFyTdWtJDBh7zyIHHXF7SWRaWv7e3X1vS6yR9TdL/Fn7/Jun5ko7YMgo/IemCkq42bLdcvaszAnuLwMklXUzSH0h6h6RvFfo+POG/JX1I0rEz+uFPS7qhpD+X9I1KHZ+Q9BRJ59lbxCc+2EklPVXStyugpQz7v4YXyr2bpB+R9FhJ/xq17T8lvUjSyTZZscs2AocAAWayx0k6PupfaV8vHf/HwDdO14DTZSS9dWDwpfLS80wUHyTpRxvK39tLflbS38x4OQHMl20QmZMMM/pQV7p9rZn0BtF30fuMwE9Kur+kzyzo+6E/vkfSRStg3XJhPa+SBC84dHR6SX/b4QX98YaQY8kVPoLS9vYbqtvFGoF9ReBnJDG5KfWpOedZ4SK3Tun3RsQZrXUhVj1U9FOS3l54SZxHMXgTSVeQ9GhJ3ytcC8DflHTJzuidTRKyqLEXyAdgMgJGoA2Bn5P0zkq/+qyk10i6z6DEu7Kk2w084F8q99FPET1yfSCUjN/N3IMoFbHKnSVdT9JVJd1GEorCEk/6n+GaUPbeb5+RAe5Lku4l6ceTp+f4XZnrY+b5ckloZ3sRLy4uv7QffxC96nY5RmAfETitJMQRub7EZOhhkn6+IvM9u6SnSYJZ5srg3AckITbF4uuLmev4/zoVcBGVIKvOlc+9Z6jcuzd/3SUzI/6CJGRFOTq1pDcXQAtAcv+ZcjfPPPfkkfqo9/OSzjyzfN9mBA4TAvThEnNGfIAVRwthTfWCkb7JZO3vM9f8VaW/YmyAyd2HM/cFHsPAgBneXtOvSPpyAgImL0dXnhq7x/cm9wTQ4i1mej2Ij+B9DfXxwnvO2nu0fc1lgCt27v6NY7Dm9zinbc/O9KevS3qEJGbWUwhb6O9kyot5QbqPrusChUpOKemVjeWh2Nxbwg7x3RkgHiWpZi6H/XFs5paCH47v3gk5HGVaPgDENKY2BG4w2J++XpJ/4xgg6tsXQtaL/XLop2yxdb7nzAdE1PHBpLy47HSfCeCtCnUxwZqisHxWoZy9OH3vDKhvaPDcQTubvuD0JXD8J51QgtHnyk/PoYQwjSPwy5KYLaX4+biMCd/7Q8ehXf0VyHRR3sXvGsUdFlJziYneW5Iy4/LTfeTWpVk6jLsm007LevG+mtwx6qVaWDrt1RveEhYdKVC5414fNDKsXPnxOV4qM21THQEcfZ7UgGeMrfd/8P29v7Nepf6m+v/Lu//LzLt/ZsYQYErtp6oo8tJvBweYXy0UDqMf022l5eFhuJf0+MyLeknDk+IGitlNClTuGFOZpcRL+2hDfbicI1M1jSPwhw145t7nYT+HNQHf/64SpnLpO8QSAkuNJYSVRk4JmNbFMbLlEoa0o0V0Gpf7u0savtZ7zztYPMQPyhLumg0NPrekz2VedFwW+9hC/2JDeWOXXLpxyYPcytSGAMtLYqy0iKnS93pYj5k9L2VkbW9nM1edT9Knkn77fUk37lDduQomdLlv5Tcq9eFmXvOvSMsjvESrtUml2vX9dd/kRfHgmNzgrDJGv5O5NwWO47d1mtE+oLG+B441fMb/KCwwR9pHt1KeDYcAbFDX9MPyJ/yuNUwa0HnwIzAWP9rNMhkLpKsMzhDY2fJDvo4zFT9MsPhddvgx2F9qcKLCkeoSQzS2Xxo6OhMKZLQwiosMvwsPgcCYJe4y4d2b9tO/kIT38FICxxa5MbE6mByWCKynxP/Z5qQMMQ7WJRsnmDARqtKXBdMeI5YmzLzSe3PHMNYexEeUKz89d7kelQ1lYL9NUBZk3yxrkdnuegftCI+L2jEE8ML9eNKPYKi12eyURzwyKTvtm+EY+TcTnhLhw/CPjWWximdg2DQxWD8msnSCL5RENF3awswidbfkYVmmjBF2i19tABAtcQ+FHUzxkw31fVoSsuoehCfiP2fqxGDeTLoHwi5j2wgQtzkwybAlINo5OzUkNzsP9cRbnM3GqGXFDA8iTOmmCXNEvKnjZ2D/FZsMynZMpsIW5SBgEOcibWzu+I2D88NSAFnC5spPz6H57UEssfCATMsPx4/bU3FHD+xcxnoRyHn6tTDLlidi6Y8dfegjte1NGwoklOhzKn4PHykEYWooetIlN5eEjL70PPzfnXA+wbA7rRSnhTEi/karrWMvzSpeTWlbc8eY/S0lPrQx7yXk6oRlNBmBXUGAVV8aDAnG08tFutXygployyo94ApPep6kNw0/TAHvtiUzRwJIja3cn7CpyRp2zsR8JUoVS3lM5lqYDtpStKY5Bhmf+4okNMZLCTkPTjNx2aV9FEdLCfd1MCnVwfmNLm2WPoDvNwIFBIhpwcqQfo85HDPqXopv+l6tz4T/0OWkQdcKzf2h00yc+G2TUDaHdpe2mzBKOOEZyfF1DkmMFK0P3+qcghKxR2YTRmZkyyWAwnkCJPWQDTO6j5n44HlpMgK7hgAOKsibcU5jItKjfwYMWvkCeQx3hciNGPhLbkvYCayFVkMkjkyXSbmGcw4zvB7UGl6UeLE9UuCQpqcWOQs5d+tg1uP5XYYRWDsCrHLJJ1jiBfF5+vOuEJYbcdvT/T9a24OQP6wlWBHLKBxZehAjbgpM7rhXvA/aTECcXB0wZ7JOmIyAETgRAVbiHyv0mbgfITrcJScfdHUYTsTPwD6ye+KI9JgQnohihz3sANPG5o5f3anx2EpiCZKrIz13/Q7PFxdBwCVCm+Jyigwcpu2Zc4yQ943ADxDAZLfFQaWXVdc2cccphZAI2GUzCKF/IqPU6oj4Fvjrp4wxd3xUp9aTXj2XfSGtE4XkJkZmRkhkdVvxHOqEmYsxAttGoCVHKH0WRrerBA8ga0tPuX1XLPDQa4nZgIYYxWMPulnjgIBnkploD8RdhhGYhgDy59a4zbnksdNq89VFBHDOSGeuuWOWAGiLexAhBHN1pOdwwTYZASOwfQRwHx+zFaa/Iio86/abdzhqZJQkNU3KGHPHv9UJEixGcrFCcnVuxJun03O4GCOwzwgQ+TLXJ9NzmN06Dd2GvoQjGq03iMXcSxbcGu9jLDLWhiBxsUbACEhqjb+xJFOLgR5BoGR2lo6SLxspZ8rfRNhKy88dkyC2JTzqlLp9rREwAuMIYNXUYmWFhQdeeaYNIIA8udUI/bYd68fnPseQ03NP71inizICRqAdAbxuW5J2YJ6Gt7JpAwigBEhzFqZMkmNCi5LluwcRMpSZca6e9FyPdFo92rzLZdB5iH3t3zgGqzWzOoAP8EaNfbSXX8QBPOL6qyT7RIt5XU9RA/LnlmzTDAq1zAxT0O0VNGZKnWu4Fpf890r6kH9NGDy7Y4ChNbz/JW0gkls6Ycod339JJQdwby8rtK00/ejGl/BnHVvzm411MigsSRDLvdcdDOgRqRAbl4wyBEDBcmXfCYeiXIfyuToue5tBesIHT+RL4t+MfStM7kgvtnYi0Bp6L5JowwuOlXSXIfXZqtuOjfHYS+D/W3R8CvzcW+p86oI6yWVH6MNSPe8a8t4tqGLVt7JiyMUEL+Hh8yd+K4TqPOw2vaxc8eAd+y4Qj/bCim8Wk1oi5+GXQeKQpaZ7KDoxDc5lT+LZyI1IfPgeoZO7M4RTNCoIST3TK21OKVdi7kOYa/9MFKo03Veu/G9JIt3NvlJr4t8cNof5HPb5qwuUM/EjRe9ApiLSYCFLJknulDjNY6E4w/dBLtFa/sEpzWa1mwZre/CUApJr8bUg32hoa22LMnR1KwEeoEVZRyp6/NR7EPE3cvm/UvC+NnNQQIwRl4UJEO0nIBIxpeP/2IeR/1qPB1thGcjaWK0gyz/evyYMMCvr9a0fxCdx2iH58b8n3zox0MlaQkbzFsJ6Ku0rueNeKbWYLOYyHc2dQMHb0hX0NySxcgYHJmfp8xDGotdqoAXj0WsIFPR3mYamDW/NxjJaoaQbN9RH/QA5Nf4GIUnjtr9nEGNgvYB2/pbJ/+FaEmvyQveVsL5hCeffOAZLdB4H/f0glviHwjcevnUY95jindk3k5pwT23bK3AasZnTPKFM0pjQTSX4RsqcXyTp4pJOP+RRRQadey4GptUYFOTStOca/fwOsqAAcmv856nxN5gFx8sjXE/TDCyMjqUEkZcNDfTWCOwgAnj4frzAdNI+zaqqRohGSv0kLuubkrAC60FYgsRls08fnkNp9L1HZ6LUlUQ4zKIxA14FEZWOBqXApMeYHvUgRrbW/INHTqiQJSnxXEO7/6mQUKCWg4xElSYjsKsIvCr6/kM/KG1JilxbKbTGhWeWPTYbb8GTFF25uDxzDBNIOhLnVMX7OadofFAFr1YxUMuzLbqGUZcoVKUXGc6PjbitjWBAaMk/iFKS2X0r3SN5hpJzC1nIwzOl20e2VubrjMDKELjyYI2QftOlYyYwiP1ydOZh5lq6Nz6Pg0oPeT1y5rhc9vFOzDHWXJvDOTKkkCg3lAUfuVD4M9qiAEYqEK5Lt6vRSbWmsnlhpxCjZCpIwcgdI39ufTnkGMQsKpSDVhmFQ44w2wvXpVvswU1GYBcReGzlu06/c47RzZR0LleUBGPL3Zeee96EflrCFXl3LpLmHOUgM18UgaGdmOvlCKsTeEy4Lt2eP3fTQZxjFGU0TRuYHr90oolO7lkQ0BMNLy07d4wAv5VuF5WJ3KwkE0O7XVOIXrK1Ql9nBFaGACKLXD8qnavFdMeRo3Rfep5Id0sIkSfi07Rc+in9dSrFlifYZ5fyizKrzllx0A5W+DXxz9Q2LbqeqX5LtCo8ipipziVGSSwl0hdROr5BY0XYVL87KpdRsQTu1aPr0no/UrmvsSm+zAgcCAJ4/E3pW0xiblpoKSvqeDWa9pP0+K6FclpPH5PxV8DsdY7/A7LweOb/xEojHlLhBSSRXRXdvdLY8EKY+cJk5xDmbciqQlljW7yXkIO10CWSZJYI/ktU86pzxLwSaj6/dgSYJZL8eKxfhf9R0pcCQqEoD9e1bB+xABxWvpjRpfXMtatO245cPkeIdohNk9YbjglDsSpi1Iy1nqGh6bakeKs9DOYq8bIjLTN3TP7BVi+uWBOLy2ZOIUD7MLf7VOWlrEYpUAPT/xmBAgKtIg4CZpVkz4gGc45cuT4azr14pgz6DgVnNUQbcwIZEVcn9hiknNJzImMvZSjHgW5VjirhfT+3wrzCy8BZZYp9IMwS5WK4v3WLs0kLwcRjY3NsJksBkEo2j7Sp9tG2tMPXGIGDRqDFLI6JT8niAl1UjsljVx37FqR9mJU1MaNbiXqQW+cmhEyg5oaTQPwat/9hlQalnsbxM2HZMWeAqFTX56+LFZYbceMZdUirPuZ3j1yY4CQwvvj+1v3rTHgkYguwlLl8RUaONUg8uqbteNSE+nypEVgjAgQGy8WeIdIc9sU1WTGiy3dm+iqiRhxWiGKZ9pn4mFl0i/iTso4rlMXMvaTcb8UbSQBRKuEFpRU4AxTme3H74/1rtVZ2ENc9oDL1Dw+BggGQAfvcg6YVJQUjI8f3Hl52ixdSKDPe8qJS77+lWDAqk9cwrifsIxa58NIKfL8RWAECxJcI33W8RYFI0CyYKH0VYmJDmAfCbeZcw+m/+AxArJoxy4vLTPeJ53OzwWoCywxcpakDhniNIR5MrMCL7w8DwVDdRjc4v8V1x/uY+s2xHNlog9PCsWuMG13aZ2TmxbKsYIRmv/QCSmXkzr85bVCH41q+xZrNdIeqXYQR2BoCeNARFCvXrziH2RledThyoCgshd/k2jTML3EyxuTT8AQsQOhTWEIwYLCKLsl7qQfv3ytsCSGcWIjHUcKnZDO9pea1VYP8hTiszCxLDzL1PC82NoWr3f/7bc1svopRPA2aEtePJtlkBPYFAZJR1Bhi/O3n9hGTELciR1hMTTHBy5Ufn4OBz5U559o3dg6v6VIUTWyijxgrYE3/k3mg5tQRA13aJ5AK8ikcVFribzACL5VDpRjiWUSYxVwbiUHSW5yS1u9jI7BtBNCplL75XD8I51gBj3nvIedFGR/umbP96CAKRRSyTbpTpd0kzS55H2+zjZPqQtnHQyF/qmly05eEbSOehwjrodbMwCx3CAXYk9AYp+0Lx8/oWZHLMgIrQuBWjXHe6QvoZ5hItUZzROmO0jEnuw59K90i02bCh910q49DTzjJqvL6Ci/AqGFnCbEHmQYeOLxIjOKRXxFkidiyeOF9QBLuo5i3IK+KqTX+c28PHpQbcYS79KMpGbLHbfe+EdhVBJhgoaAjuxCOYuiKiD6HXJg+jL4HcQYWXHMIpkf5mK0hRoQnfHLwN6AOvHoxzSUIGXLmktv1nLqn3sNKujTJhIdh5LA3BMMOlhsYdcMIS4GNMHepmbjFTBPj9Z50/cqI+deRRrtnnS7LCKwRAfwDMI/FXhjrjVI4hLltp58HnoCslzoYIEp+CXPrmXsf5sExr4n3D/VK+iKN1h0I73smbeSDqTnJ9FZGzv1wfJ8RMAKbRSCNdhkzZ/avstnq1106y6sUkNwxMuuexCj+5ULdhCO8QM/KXJYRMAKrRYAwDjmewzlEPcz0V0lYMGBaQpQ3nDVgaj2J8lvMclAgXK1nxZLSwCnxC0IuVlp6XU4SKbn4BSVn56a5OCNgBLaEACvpWmB+UmOVCEUroVcRj2C9sjWisvsNCoMQ3BqznE8MjAnb4R5Ui38RM0yUF2Pu41PaM2b7XNLYwrRRdIa2YRq4es+iKcD4WiNwyBBg0vnFqE+Hvs22ZvuMB2ScaYpYJ1uJ0UGc5ZplAw3HgLw0w2x9v9gUvrYATAwS+7ib9iQM6kt2oNg+lzS2yMBjTyxeiskIGIHdRQDekvKbcIw9d8n2mVyI4Tq2WKJtnK6XMKC4Aen+UosKBO+5iFVpPcRlnRIhrwWkWtZwYkKXKM0qfNXShT5vBIzA6hHAUqUUnwQ+dFThCViBYxceeNUXKpO6QhHTTzPVb0ltFRr1nOlVnHDHmFF4qIMlRu84zGhsa1H0SkwXsyBELaFtOOeEwDInPJh3jIAR2BkE0KvlIvzRxwk/UXKY4T4COAVesBUzvPtEFYaKa1sCnsBo5xAy3pZ4AARm6k0keyzVjTNNKYj3ryf44OpuMgJGYHcRuH3Sp2N+V+I9ROGLV+DHbyPaJT7vU/3n8TxCAzqVmInmMvTG4LCPQnITgVJqeQdLiQBY0rwlepmrNr2Z+kJ8vRE4pAgQnS7lO+H4RgVM4Elx1L4lkoRCFf//NEqxKeINHoKIdnMol6E3gBK2yKaZsW6CMNcL9aTbowsVEsM6vtYR7gpA+bQR2CEECDsR9+t4/4KZ52AiG4dbxsINF/GN09klYb0QN7C2T8PmeNcQ6pCIdLWysa4gPvOmiKQBpfqvlKmUeByxGQ4xBXq7wWaq9SkjYAQ2jABKwBwvgBfmUn+R1CAWj86dpE5+rPM0uluHh5kTtIg07shrQhmlLfKdTRL21CUzwtTxhPQ2hD4MbUVb6+wqm3w7LtsIbA8BZsk5c1sCOsUpujC1u2NidUb8+q15GOKYQvLHwIhqW4IITY3Tim01MuVaufxHNoNtUGlpg1cQmlvCKj5REvGqQ5u/LongSiYjYAT2AwF8OUq+GMyuzyaJXI6vjPgA/ABeOSUR7mK0CPOHvXFgRqUtiSOnjhrIkgnXVyqT84xiTxjylC1+mIYCeDEMNLk25UZURBzYiJuMgBHYLwSIufPZCbwAA4cDidODLV+JYTGdP2bie2FZgB97bC+YKx/PPOJibJtw0cYSJZYp5dqH7fMVt90412cEjMDWELjoENYi1//DOeylcU7ZasyNGAEcNHKZtrGoQC5MXOcWIuMJs03spMPDlbb4sh/kzPRkg9gCE7pYnEHgbgYl7LWtEGx5677GCOw2AkgGmCiS1SXmg0wgmcgh6phjVtwVleMqTBUzvKdJQtlHhgU8D4lGh5wGywgE7qS5IZhQzOxyzJnRiLrO27X18wtDccjISFYY5M8MRvYSnI+n7zQCu4oAK+tzDKtm+Bw8bq5DXncMMC2puUEHZkscZdJYcS2p2pHRllwmwz1h+0FJR3ZvuQs0AkbACBwCBLBiwNY3MNRe249JwnMnZ194CGD1IxoBI2AE+iDA8p7sup/rwKixlrjnQQrX+0DiUoyAETAC60IAWSwZdxGcj1k7hJn2t4c0Mc8cRBm9Q4WuCyG3xggYASNwwAgwo8blGRdsgoOQSQTzM+yisdbA/OTYQQuKYN1M+YBfmKs3AkbACBgBI2AEjIARMAJGwAgYASNgBIyAETACRsAIGAEjYASMgBEwAkbACBgBI2AEjIARMAJGwAgYASNgBIyAETACRsAIGAEjYASMgBEwAkbACBgBI2AEjIARMAJGYNsI/B9KCj2erOSd1wAAAABJRU5ErkJggg==;fontSize=11;direction=east;" vertex="1" parent="1">
          <mxGeometry x="352.45" y="459" width="40.83" height="11" as="geometry" />
        </mxCell>
        <mxCell id="xpsuu7LTEluh2EXMMEZl-76" value="" style="shape=image;verticalLabelPosition=bottom;labelBackgroundColor=#ffffff;verticalAlign=top;aspect=fixed;imageAspect=0;image=data:image/png,iVBORw0KGgoAAAANSUhEUgAAAE8AAABJCAYAAAB8bXubAAAHPklEQVR4Ae2bd8g1xRWHHw1qjGKLJsZeY6yIiR2NirFGBFtii0r8wxbEggr2TghBUUSNHVuIiL0nih2NPcVesfeCvfLA7MuwzOydvXff+/rx7YHLnZ2dOTPnt1POnHMGeuoR6BHoEegR6BHoEegR6BHoEegR6BGYFhGYFVgBOAy4GrgHeAr4APgSeBd4ArgJOBxYYkgh5wf2AK4Hng78vwI+BF4Cbgf+Ciw7JP+xVpsF2A24AXgP+Lbw9z5wEbBKYW/nAI4EHm3B/zxggUL+Yy/2K+A64JtCgVLAvhFGUlPnlwL+OWQbzwCrNTGfindHAG8OKVAdxC+A04CZEoKsDvxvxHZeB9ZK8J6SLAVtGm2uc/eGqfx34Fbg+QIArqgB6IhR8DrYPr8c+FrnsjADmkB2BM45JWhFjZ6VEUaB7gT2D4u1a9TMod7swM+Ao4EXG+rL44RQZxHgkURZN4ZzgMWA2YAZgB8EYNxMXH8fT9ST9xmRHGNP2ridqP/84gcCcxf06LfACwkeFU/B2QK4NlHGUWj9HLkGnwu4jlb84v/ngB/nKk9m/n7A14lO3TjEgqyqEgtVT7+SeP8qsGWDgAcEdajOq/78mwYek/Lq1xk15MLC0VbvlCPk0wRAdUHjZwHP0TGAm05cPpd2WRkbzROU0XpnLgFc14YhFWQV5jrP3PPlwIKZhjYBPmvB66QMn0nJVpGtC6V274I9LM2b2Qzq7fj8ObBVpqEfhR09VS+Xd1yGV+fZ24SjVdwRVYS1R2zJnbREdbFdTy65jWhp4O3Ex437W0/vPmLfi6qrWjyW6Nifimo3F1q+xVTbqYHVOon+1cGKnx3Fv2zg19mrQxIdu6+js+JGCd6xkFX6HcCjWY62LeRT8bsj6IQ5fp3k/wR4KNEx1YEuaM8E70rA+F8LiQp2jlYOa2JcJ5d2U2nSEXNttM7/Q0I4p/AyrTmlK5yc4J8S+tR09Ync+cKpJlU3zvMo+eeJWpOcuDQhnJr7jB2060gqtZDkdtm4G2sOUI619WnfGwv9NGEz82ThOtUFLR4O9fHISKVfAyxbQtoEVZ+qndf+egT0I21XwqCrMupOD9ZGngd087sgz60psOp5Cq51upTsn5vLumFHXXgEJb60zWQ5F2KVyYOBnYNFJFlwiMy/FII3tqk2hAxTUsWRpCGhPspSz5tPSQ+/x416smgyR1Ug6sixbE8RAhsWjjpHp46lniIETiwEr7ImR1Wn7+QPg8+2mppN/47QniIEFg1O6SbQfPcssFBUr08Gv8Qg4HyvHzjlgpyuQdSCWwKeUQE9RQh4nv1XAXgeq7TR9RQh4LEp5w6MR6P+Vo2wPUUI/K5g1AniVR1ZbqKmp/3k6YXgab3uKULA+BDN3/H0TKWN4TOop6cIgV8MMFZWQP6/I/9I1bR2SS3fOpuMYZky8nSg01kHuOk2tEvBqBPAazq0Ga4UolKNe3FEG6OyaptOd1F2Y+CCYBzVw39/WNS3b7Gwn10Inn6NLkhXgWFt1Yiu/v2IYyFDwxQ6F0+iX8BQs0HkdHkgIUglUPyv06kLWg7QhB/zNl7Q/EknTUEekeLGU2kdyFsP6M16iYiDFC/jkw3+6YIOSvRdBX0spPk7JWAq7+IBPSo1uRs5v+QAXiWvNSik4vr+WFJ51DIrhtD8FFCpvCYnjScFPVqpevU81yg3o1HJ0AyXlJi/U7jJcT5qmxP1dTLHDQ9KG2uc65gB1G8V8vtbiw1oorO1hCG29qfeZ2P3Jp2M63X61BtvetY5niM99E1143defBmVjk+0ZyTWWHQ8p40R47FQg9L7ZCRWJzQoaFD96v2ojmkjCwwKqvhV/4dm+td5tt75VCxw1ZH6vyrIXJleuAvXyzc975rhU5JtrGAqFO62kspdlXHk5ULw64J7jyx3DnXH+29L8IZdl9ZIRDfYVwfB2E35fq06UPVnp8dmDV/sHwkeqSj6mK9HM9fcNmTYRioMTsW+KWq+TRutyh6VELwS8pOgQ3nQz9EpiesGni2PzQSFx7w98pWQKpBXt1I3g2xrrxImk1Hm55n7ZH5Nfa65qCUBPT8DvLd1JA2iueOeILozehEmF2FvLN6mwC2Zdhzd3jCaUmoKPPxPiHX7PbABsHe4cGeQdzWK4v+7a3qgd9bi96n0XeFDqfC6PDiSdB5plHBkpep8DIxtZ236Ou6gpXdaU4JUeQJXj2LX4qFu2HTpr6pf+m9cS+mUb5K7s3deMnky85VLhLpywA1DleKPRuBvH5ymN3doUOgMPBl55d2za5tR4rpVqnaoC9aDKEs+jGU8CTnaugq47BS4ipnn1h2CAVQdMKVyeOfr4bCjGlLRhvRvaMfTgJBbNwVL89e/gTND5EFuU2nT9tjKqoOpImh10Ubn/QdB1dKsn8CdcFQyHk9T+Y7AvoDXFkyvH/wQ9fVz1Pb6+j0CPQI9Aj0CPQI9Aj0CPQI9Aj0CbRH4DhUhtmG7OTBUAAAAAElFTkSuQmCC;direction=east;" vertex="1" parent="1">
          <mxGeometry x="396.68999999999994" y="503" width="14.07" height="13" as="geometry" />
        </mxCell>
        <mxCell id="xpsuu7LTEluh2EXMMEZl-77" value="" style="shape=image;verticalLabelPosition=bottom;labelBackgroundColor=#ffffff;verticalAlign=top;aspect=fixed;imageAspect=0;image=data:image/png,iVBORw0KGgoAAAANSUhEUgAAAEoAAABfCAYAAABPy1FZAAAIWUlEQVR4Ae2cdag9RRTHvyp2d7fYih3YooJ/CLaYILbYigoKBiqKjd3d3Z3Y3d3d3c1H7vW3v/mdvXN273nv7fu5A4+3M3fmnLPfyROzUptaBFoEWgRaBFoEWgRaBFoEWgRaBEZfBMaXtIWkayW9KukLSb9L+l7SR5Iek3SmpFWGEIIpJY09hPy1pKRHJP3t+PtN0u2S5h8kgeeRdLSkuyTdJ+nKoeqsXSX94AAoBfFTSWsPMFibSvrakO3HAeY7CvnDJP1hCJKCUpb/RtKqo1CNKVhJ0s89ZIvh4qBygKS/DEGYWkzDqyVdIOlRo04RuLclsb5FJtai+zN8I/mV0tpIEsO3+MI8sw4wQmYqvPzCkl4z6hbbHl7Kqd4PS0j6NcOzHuUKrRaR9I4hxLmSpjXoTCLpHqN+EajnJU1mtK1btH+GH7wHNE0h6SFDiIsljVfCGaDYbYrApM9/SlqspH3V4jEk3ZHhN+BAnWUIcLOk2Xq8zRySXjLapWBt04NGlZ9mkMSOmtJP81VoVqrL2pMeA96VtEKGytKdQ2cqaJo/NEPH+/MGDpDgPSCJaXWbIcBBDm47G+1SkMgf66DlqXKqk5+HVuU6m0tiHSm+IEeAiTOUWC8uStoVaRSfd8nQ8vxMh6IqFelaz996iFWtM5Wkhw3mezkITS3pKaOtJfzqDnq5KnMZy4PF6/EcoTq/r2O86PuZBbzLZ82SQ2kq/MuSpu826uP/loasKS/yp/TBw2zK1OGEnTI7z6w9auHZRtuUFvlzRm1aq+R8J79NalHv0QjN+7OEOSoKelQusU17jgWoQYy8fhPnNc80R6OYtV9mafutE5DofU7ZE6YVjfz6RltrND0ribWs37SApF8cPJ+UNG6/zNL2JxqM900rleQvM9paQJ1c0r5q8U5OflHT/D/5WJ8woxRf7ktJTMdcYmhjFSi2tZ4x0aycI+b8/XIHP2TYykmvUjXMpiiY/G0naVlna+/u84Qk9Md+E1P3OQdQTE1PR/crj6v9WJKucwhN7x7nopivhCka+7w1aotlzzgOyXluQTVQgj92CM3uuVwQT9bNIiBlz5cE8Qshs6NTaFSgCBsUI/gaJ0/0zsYkPCxlPVosPzJI4hklcbIv0raeGcEYHRuRsEtZXo9UcBbVZYIkXtFQ2FN+5LGiYktvRMJ1ZQmZlj0gadIgiQ908kQVa0zCuZCCYuU5n0WkcSTd4OS5TwTDCBrTSfrcIfRPkhaPYChpZkmvO3hiS/OeAYNEKyfjNcHiaMgZ/Mq5jPzLag6QGNFRZpyRudfMeU0qOE6jUqpiWdOcMo4PHCOGPLGboI6UCdotZwqwS0UkvMt4gLq0e/1HBWtEwsSRemgswSOnwCxOxbtR65PX9oQOOGZQ167hHE10juXBDhKjGhl8ctYISssit+hDnDyvr/YqA1e7zK6egoR2v1SQGMPy/MRWn4stADSmAGetiIR+94pjRGEYxATTiITfDzt0OoLS/N2SJg+SGPNM6pBN+ZF/URLyNSJ5excbelTAmNf+1Cj9DosBDlGrR4tluNZZzyKS1z6+ZwSzKBpeoE4LYshW77GPs3k0xv7Eu6OYvukYURcGAYVCjRGuOFqt5xeCLKhBYkt4hD070KUBjkcclzc5QAK4K8LeMIhQWbRL2svoZf3ayE9yggTviDCiIIhGkLE8yilQrCvTjGhS+QlPsGfKwZd6C1bmMAgNlnf0NHbyXBhjmahEn3iMgt3OwT4eZfMqk6l2+dMOsIgzqHJEwIZEEOyHDtpdkPjfKP9diijhi0VhredPJK2VNizJs0kQ8EUYoUWrV9kOJTQbUTxRSUBs+kLofJtJIp7JSpzLdpfkGaEpbfJM8Xktwk0qw53uOSqw2N4riU1gt84OxVUx1Jz3aoygImDonRM0CZQyWeZzRtoVX87zzLT11DujTLAmlhMfhTXTo+HnXp7boxgGvfEFeIOGVcJSsKEkQpWt62o5gIgdJTqO85BXv6MNtvRhmTgO4HnBnUUw6nc9phDOUQ6mx0tiCncTcQqeC5R3SsL6OewT0XX0OBew2flYyPfuhAsSGcxmYDkCiHzJjUB+j3LVD0ugMR9z0s4BxYjzhHUPSxA8QvOJgBxI/B4ZIeORq3Id1Axs4awNVdQTDyMuAd3iBGoPD8GhqMMFnYM7H4TAC3NjR+WI9HqwiFt3l9MRRqh243Y7bEpHSeJSYyoweWLRWaQjEuZji0daFmVmjpD5XxrsWh4fHp8b6XdkMULecAAFr6j7yCFAEZyPezrtzbL8CX1yPcbJ64g++YQ3X9d56OsCR8hg3YCMRZ0XqFGAG+Pg7CLOVzG6IHj+31pTi2fnvMrBiw9A0HmNSti60dk8AHXreC8/pi+6nvM6GR+kaFxiYfXcluqCxH+cAVUTG4DHHoVO10ib09ySvqowourcmiKGwRPsAW3MxI1MKKsfOIHCOlD1U0cE53NgLY5I6/ktSQs1EqGOUCimHn8/p+iNK74Io8NjlON+ctH0UpHN4FTHCNerxzHM8W2EqtfKOAZYX+hIRxP29TkH51X751L26RDcSdiUqlzIYRfFKuAJ7sBH11hnpgUrUStEiKS9TZ4dkW+r8MEadkhcV2niZD+7pG0lsWvlzMPYyiODY1N5BjTPGafXd+Mw5XLdnxAfXFF8aQwnJqMCZ4PHlYUBjrqNXrQ9KG9f03trjcS0jG8gMCUbcR3DA0auDp+FLJuG6cvn8kzBBzsH1Kio4Zz8g/o7C/J+TlOIBRaBF0wxbj30Gzc1qC9elxkLN05HIuo4NVsneMq4V4dd+/QOOMQYjBaupbrAte1aBFoEWgRaBFoEWgRaBFoE/ucI/APpizKRHE6EPAAAAABJRU5ErkJggg==;direction=east;" vertex="1" parent="1">
          <mxGeometry x="310.77" y="409" width="11.68" height="15" as="geometry" />
        </mxCell>
        <mxCell id="xpsuu7LTEluh2EXMMEZl-78" value="(a)&amp;nbsp;" style="text;html=1;resizable=0;autosize=1;align=center;verticalAlign=middle;points=[];fillColor=none;strokeColor=none;rounded=0;fontSize=11;" vertex="1" parent="1">
          <mxGeometry x="388.73" y="60" width="30" height="20" as="geometry" />
        </mxCell>
        <mxCell id="xpsuu7LTEluh2EXMMEZl-79" value="&lt;font style=&quot;font-size: 16px&quot;&gt;(a)&amp;nbsp;&lt;/font&gt;" style="text;html=1;resizable=0;autosize=1;align=center;verticalAlign=middle;points=[];fillColor=none;strokeColor=none;rounded=0;fontSize=11;" vertex="1" parent="1">
          <mxGeometry x="275.77000000000004" y="360" width="40" height="20" as="geometry" />
        </mxCell>
        <mxCell id="xpsuu7LTEluh2EXMMEZl-80" value="&lt;font style=&quot;font-size: 16px&quot;&gt;(b)&amp;nbsp;&lt;/font&gt;" style="text;html=1;resizable=0;autosize=1;align=center;verticalAlign=middle;points=[];fillColor=none;strokeColor=none;rounded=0;fontSize=11;" vertex="1" parent="1">
          <mxGeometry x="275.77000000000004" y="620" width="40" height="20" as="geometry" />
        </mxCell>
        <mxCell id="xpsuu7LTEluh2EXMMEZl-81" value="&lt;font style=&quot;font-size: 16px&quot;&gt;(c)&amp;nbsp;&lt;/font&gt;" style="text;html=1;resizable=0;autosize=1;align=center;verticalAlign=middle;points=[];fillColor=none;strokeColor=none;rounded=0;fontSize=11;" vertex="1" parent="1">
          <mxGeometry x="549.24" y="620" width="40" height="20" as="geometry" />
        </mxCell>
      </root>
    </mxGraphModel>
  </diagram>
</mxfile>
